<?xml version="1.0" encoding="utf-8"?>
<!-- Generator: Adobe Illustrator 19.1.1, SVG Export Plug-In . SVG Version: 6.00 Build 0)  -->
<svg version="1.1" xmlns="http://www.w3.org/2000/svg"  x="0px" y="0px"
	 viewBox="0 0 367.7 234.3" style="enable-background:new 0 0 367.7 234.3;" xml:space="preserve">
<style type="text/css">
	.st0{fill:url(#SVGID_3_);fill-opacity:0.78;}
	.st1{fill:url(#SVGID_6_);fill-opacity:0.78;}
	.st2{fill:url(#SVGID_7_);}
	.st3{fill:#414042;}
	.st4{fill:url(#SVGID_8_);}
	.st5{fill:url(#SVGID_9_);}
	.st6{fill:url(#SVGID_10_);}
	.st7{fill:url(#SVGID_11_);}
	.st8{opacity:0.2;}
	.st9{fill:none;stroke:url(#SVGID_12_);stroke-width:6;stroke-miterlimit:10;}
	.st10{fill:none;stroke:url(#SVGID_13_);stroke-width:6;stroke-miterlimit:10;}
	.st11{fill:none;stroke:url(#SVGID_14_);stroke-width:6;stroke-miterlimit:10;}
	.st12{fill:none;stroke:url(#SVGID_15_);stroke-width:6;stroke-miterlimit:10;}
	.st13{opacity:0.3;}
	.st14{fill:url(#SVGID_16_);}
	.st15{fill:url(#SVGID_17_);}
	.st16{fill:url(#SVGID_18_);}
	.st17{fill:url(#SVGID_19_);}
	.st18{fill:url(#SVGID_20_);}
	.st19{fill:url(#SVGID_21_);}
	.st20{fill:url(#SVGID_22_);}
	.st21{fill:url(#SVGID_23_);}
	.st22{filter:url(#Adobe_OpacityMaskFilter);}
	.st23{opacity:0.5;mask:url(#SVGID_24_);}
	.st24{fill:#FFFFFF;}
	.st25{opacity:0.5;}
	.st26{fill:none;stroke:#FFFFFF;stroke-width:0.75;stroke-miterlimit:10;}
	.st27{fill:none;stroke:url(#SVGID_25_);stroke-width:0.75;stroke-miterlimit:10;}
	.st28{fill:none;stroke:url(#SVGID_26_);stroke-width:0.75;stroke-miterlimit:10;}
	.st29{fill:none;stroke:url(#SVGID_27_);stroke-width:0.75;stroke-miterlimit:10;}
	.st30{fill:none;stroke:url(#SVGID_28_);stroke-width:0.75;stroke-miterlimit:10;}
	.st31{opacity:5.000000e-002;}
	.st32{fill:url(#SVGID_29_);}
	.st33{fill:url(#SVGID_30_);}
	.st34{fill:url(#SVGID_31_);}
	.st35{fill:url(#SVGID_32_);}
	.st36{fill:url(#SVGID_33_);}
	.st37{fill:url(#SVGID_34_);}
	.st38{fill:url(#SVGID_35_);}
	.st39{fill:url(#SVGID_36_);}
	.st40{fill:url(#SVGID_37_);}
	.st41{fill:url(#SVGID_38_);}
	.st42{fill:url(#SVGID_39_);}
	.st43{fill:url(#SVGID_40_);}
	.st44{fill:url(#SVGID_41_);}
	.st45{fill:url(#SVGID_42_);}
	.st46{fill:url(#SVGID_43_);}
	.st47{fill:none;stroke:#000000;stroke-width:4;}
	.st48{fill:url(#SVGID_44_);}
	.st49{fill:url(#SVGID_45_);}
	.st50{fill:url(#SVGID_46_);}
	.st51{fill:url(#SVGID_47_);}
	.st52{fill:url(#SVGID_48_);}
	.st53{fill:url(#SVGID_49_);}
	.st54{fill:url(#SVGID_50_);}
	.st55{fill:url(#SVGID_51_);}
	.st56{fill:url(#SVGID_52_);}
	.st57{fill:url(#SVGID_53_);}
	.st58{fill:url(#SVGID_54_);}
	.st59{fill:url(#SVGID_55_);}
	.st60{fill:url(#SVGID_56_);}
	.st61{fill:url(#SVGID_57_);}
	.st62{fill:url(#SVGID_58_);}
	.st63{fill:url(#SVGID_59_);}
	.st64{fill:url(#SVGID_60_);}
	.st65{fill:url(#SVGID_61_);}
	.st66{fill:url(#SVGID_62_);}
	.st67{fill:url(#SVGID_63_);}
	.st68{fill:url(#SVGID_64_);}
	.st69{fill:url(#SVGID_65_);}
	.st70{fill:url(#SVGID_66_);}
	.st71{fill:url(#SVGID_67_);}
	.st72{fill:url(#SVGID_68_);}
	.st73{fill:url(#SVGID_69_);}
	.st74{fill:url(#SVGID_70_);}
	.st75{fill:#641212;}
	.st76{fill:#D34828;}
	.st77{fill:#631212;}
	.st78{fill:#641312;}
	.st79{fill:#2B1211;}
	.st80{fill:#F89E26;}
	.st81{fill:#A32022;}
	.st82{fill:#A42022;}
	.st83{fill:#A31F22;}
	.st84{fill:#EF7B23;}
	.st85{fill:#F37433;}
	.st86{fill:#631312;}
	.st87{fill:#EE723A;}
	.st88{fill:#F79E26;}
	.st89{fill:#F7B61F;}
	.st90{fill:#FCD148;}
	.st91{fill:#EE7239;}
	.st92{fill:#D34928;}
	.st93{fill:#CF4431;}
	.st94{fill:#F3EC59;}
	.st95{fill:#ED7236;}
	.st96{fill:#D84527;}
	.st97{fill:#FAF39A;}
	.st98{fill:#F07432;}
	.st99{fill:#EF7A23;}
	.st100{fill:#EEE11F;}
	.st101{fill:#F6F193;}
	.st102{fill:#F6F192;}
	.st103{fill:#FBF28E;}
	.st104{fill:#EFE923;}
	.st105{fill:#7E2E18;}
	.st106{fill:#ED7336;}
	.st107{fill:#FCFDF3;}
	.st108{fill:#F8F4A9;}
	.st109{fill:url(#SVGID_71_);}
	.st110{fill:url(#SVGID_72_);}
	.st111{fill:url(#SVGID_73_);}
	.st112{fill:url(#SVGID_74_);}
	.st113{fill:url(#SVGID_75_);}
	.st114{fill:url(#SVGID_76_);}
	.st115{fill:url(#SVGID_77_);}
	.st116{fill:url(#SVGID_78_);}
	.st117{fill:url(#SVGID_79_);}
	.st118{fill:url(#SVGID_80_);}
	.st119{fill:url(#SVGID_81_);}
	.st120{fill:url(#SVGID_82_);}
	.st121{fill:url(#SVGID_83_);}
	.st122{fill:url(#SVGID_84_);}
	.st123{fill:url(#SVGID_85_);}
	.st124{fill:url(#SVGID_86_);}
	.st125{fill:url(#SVGID_87_);}
	.st126{fill:url(#SVGID_88_);}
	.st127{fill:url(#SVGID_89_);}
	.st128{fill:url(#SVGID_90_);}
	.st129{fill:url(#SVGID_91_);}
	.st130{fill:url(#SVGID_92_);}
	.st131{fill:url(#SVGID_93_);}
	.st132{fill:url(#SVGID_94_);}
	.st133{fill:url(#SVGID_95_);}
	.st134{fill:url(#SVGID_96_);}
	.st135{fill:url(#SVGID_97_);}
	.st136{fill:url(#SVGID_98_);}
	.st137{fill:url(#SVGID_99_);}
	.st138{fill:url(#SVGID_100_);}
	.st139{fill:url(#SVGID_101_);}
	.st140{fill:url(#SVGID_102_);}
	.st141{fill:url(#SVGID_103_);}
	.st142{fill:url(#SVGID_104_);}
	.st143{fill:url(#SVGID_105_);}
	.st144{fill:url(#SVGID_106_);}
	.st145{fill:url(#SVGID_107_);}
	.st146{fill:url(#SVGID_108_);}
	.st147{fill:url(#SVGID_109_);}
	.st148{fill:url(#SVGID_110_);}
	.st149{fill:url(#SVGID_111_);}
	.st150{fill:url(#SVGID_112_);}
	.st151{fill:url(#SVGID_113_);}
	.st152{fill:url(#SVGID_114_);}
	.st153{fill:url(#SVGID_115_);}
	.st154{fill:url(#SVGID_116_);}
	.st155{fill:url(#SVGID_117_);}
	.st156{fill:url(#SVGID_118_);}
	.st157{fill:url(#SVGID_119_);}
	.st158{fill:url(#SVGID_120_);}
	.st159{fill:url(#SVGID_121_);}
	.st160{fill:url(#SVGID_122_);}
	.st161{fill:url(#SVGID_123_);}
	.st162{fill:url(#SVGID_124_);}
	.st163{fill:#939598;}
	.st164{fill:url(#SVGID_125_);}
	.st165{fill:url(#SVGID_126_);}
	.st166{fill:url(#SVGID_127_);}
	.st167{fill:url(#SVGID_128_);}
	.st168{fill:url(#SVGID_129_);}
	.st169{fill:url(#SVGID_130_);}
	.st170{fill:url(#SVGID_131_);}
	.st171{fill:url(#SVGID_132_);}
	.st172{fill:url(#SVGID_133_);}
	.st173{fill:url(#SVGID_134_);}
	.st174{fill:url(#SVGID_135_);}
	.st175{fill:url(#SVGID_136_);}
	.st176{fill:url(#SVGID_137_);}
	.st177{fill:url(#SVGID_138_);}
	.st178{fill:url(#SVGID_139_);}
	.st179{fill:url(#SVGID_140_);}
	.st180{fill:url(#SVGID_141_);}
	.st181{fill:url(#SVGID_142_);}
	.st182{fill:url(#SVGID_143_);}
	.st183{fill:url(#SVGID_144_);}
	.st184{fill:url(#SVGID_145_);}
	.st185{fill:url(#SVGID_146_);}
	.st186{fill:url(#SVGID_147_);}
	.st187{fill:url(#SVGID_148_);}
	.st188{fill:url(#SVGID_149_);}
	.st189{fill:url(#SVGID_150_);}
	.st190{fill:url(#SVGID_151_);}
	.st191{fill:url(#SVGID_152_);}
	.st192{fill:url(#SVGID_153_);}
	.st193{fill:url(#SVGID_154_);}
	.st194{fill:url(#SVGID_155_);}
	.st195{fill:url(#SVGID_156_);}
	.st196{fill:url(#SVGID_157_);}
	.st197{fill:url(#SVGID_158_);}
	.st198{fill:none;stroke:url(#SVGID_159_);stroke-width:6;stroke-miterlimit:10;}
	.st199{fill:none;stroke:url(#SVGID_160_);stroke-width:6;stroke-miterlimit:10;}
	.st200{fill:none;stroke:url(#SVGID_161_);stroke-width:6;stroke-miterlimit:10;}
	.st201{fill:none;stroke:url(#SVGID_162_);stroke-width:6;stroke-miterlimit:10;}
	.st202{fill:url(#SVGID_163_);}
	.st203{fill:url(#SVGID_164_);}
	.st204{fill:url(#SVGID_165_);}
	.st205{fill:url(#SVGID_166_);}
	.st206{fill:url(#SVGID_167_);}
	.st207{fill:url(#SVGID_168_);}
	.st208{fill:url(#SVGID_169_);}
	.st209{fill:url(#SVGID_170_);}
	.st210{filter:url(#Adobe_OpacityMaskFilter_1_);}
	.st211{opacity:0.5;mask:url(#SVGID_171_);}
	.st212{fill:none;stroke:url(#SVGID_172_);stroke-width:0.75;stroke-miterlimit:10;}
	.st213{fill:none;stroke:url(#SVGID_173_);stroke-width:0.75;stroke-miterlimit:10;}
	.st214{fill:none;stroke:url(#SVGID_174_);stroke-width:0.75;stroke-miterlimit:10;}
	.st215{fill:none;stroke:url(#SVGID_175_);stroke-width:0.75;stroke-miterlimit:10;}
	.st216{fill:none;}
	.st217{fill:url(#SVGID_176_);}
	.st218{fill:url(#SVGID_177_);}
	.st219{fill:url(#SVGID_178_);}
	.st220{fill:url(#SVGID_179_);}
	.st221{fill:url(#SVGID_180_);}
</style>
<g id="Layer_1">
	<g>
		<linearGradient id="SVGID_2_" gradientUnits="userSpaceOnUse" x1="16.7201" y1="57.764" x2="334.6044" y2="207.759">
			<stop  offset="0" style="stop-color:#F47721"/>
			<stop  offset="0.2" style="stop-color:#FED500"/>
			<stop  offset="0.5" style="stop-color:#FCF395"/>
			<stop  offset="0.8" style="stop-color:#FED500"/>
			<stop  offset="1" style="stop-color:#F47721"/>
		</linearGradient>
		<polygon style="fill:url(#SVGID_2_);" points="313.3,165.7 264,165.7 264,206.5 313.3,179 		"/>
		<linearGradient id="SVGID_3_" gradientUnits="userSpaceOnUse" x1="13.0727" y1="74.5027" x2="327.1383" y2="222.6959">
			<stop  offset="0" style="stop-color:#F47721"/>
			<stop  offset="0.2" style="stop-color:#FED500"/>
			<stop  offset="0.5" style="stop-color:#FCF395"/>
			<stop  offset="0.8" style="stop-color:#FED500"/>
			<stop  offset="1" style="stop-color:#F47721"/>
		</linearGradient>
		<polygon style="fill:url(#SVGID_3_);" points="250.8,165.7 202.1,165.7 202.1,184.6 250.8,207.2 		"/>
		<linearGradient id="SVGID_5_" gradientUnits="userSpaceOnUse" x1="-1.3527" y1="105.0745" x2="312.7129" y2="253.2677">
			<stop  offset="0" style="stop-color:#F47721"/>
			<stop  offset="0.2" style="stop-color:#FED500"/>
			<stop  offset="0.5" style="stop-color:#FCF395"/>
			<stop  offset="0.8" style="stop-color:#FED500"/>
			<stop  offset="1" style="stop-color:#F47721"/>
		</linearGradient>
		<polygon style="fill:url(#SVGID_5_);" points="188.2,165.7 139.5,165.7 139.5,200.3 188.2,186 		"/>
		<linearGradient id="SVGID_6_" gradientUnits="userSpaceOnUse" x1="-9.199" y1="121.7031" x2="304.8666" y2="269.8964">
			<stop  offset="0" style="stop-color:#F47721"/>
			<stop  offset="0.2" style="stop-color:#FED500"/>
			<stop  offset="0.5" style="stop-color:#FCF395"/>
			<stop  offset="0.8" style="stop-color:#FED500"/>
			<stop  offset="1" style="stop-color:#F47721"/>
		</linearGradient>
		<polygon style="fill:url(#SVGID_6_);" points="125.6,172.5 118.6,172.5 118.6,165.7 83.9,165.7 83.9,172.5 76.9,172.5 76.9,176.2 
			125.6,201.6 		"/>
		<linearGradient id="SVGID_7_" gradientUnits="userSpaceOnUse" x1="-23.8161" y1="152.6812" x2="290.2495" y2="300.8744">
			<stop  offset="0" style="stop-color:#F47721"/>
			<stop  offset="0.2" style="stop-color:#FED500"/>
			<stop  offset="0.5" style="stop-color:#FCF395"/>
			<stop  offset="0.8" style="stop-color:#FED500"/>
			<stop  offset="1" style="stop-color:#F47721"/>
		</linearGradient>
		<polygon class="st2" points="63,172.5 56,172.5 56,165.7 14.3,165.7 14.3,195.3 63,177.7 		"/>
		<linearGradient id="SVGID_8_" gradientUnits="userSpaceOnUse" x1="16.1585" y1="67.963" x2="330.2241" y2="216.1562">
			<stop  offset="0" style="stop-color:#F47721"/>
			<stop  offset="0.2" style="stop-color:#FED500"/>
			<stop  offset="0.5" style="stop-color:#FCF395"/>
			<stop  offset="0.8" style="stop-color:#FED500"/>
			<stop  offset="1" style="stop-color:#F47721"/>
		</linearGradient>
		<polygon class="st4" points="313.3,214.4 313.3,179 264.7,206.5 264.7,214.4 		"/>
		<linearGradient id="SVGID_9_" gradientUnits="userSpaceOnUse" x1="288.687" y1="212.0044" x2="288.687" y2="154.5217">
			<stop  offset="0" style="stop-color:#EF4725"/>
			<stop  offset="0.5138" style="stop-color:#FED500"/>
			<stop  offset="1" style="stop-color:#FCF395"/>
		</linearGradient>
		<polygon class="st5" points="313.3,214.4 313.3,179 264,206.5 264,214.4 		"/>
		<linearGradient id="SVGID_10_" gradientUnits="userSpaceOnUse" x1="-0.6681" y1="103.6235" x2="313.3976" y2="251.8167">
			<stop  offset="0" style="stop-color:#F47721"/>
			<stop  offset="0.2" style="stop-color:#FED500"/>
			<stop  offset="0.5" style="stop-color:#FCF395"/>
			<stop  offset="0.8" style="stop-color:#FED500"/>
			<stop  offset="1" style="stop-color:#F47721"/>
		</linearGradient>
		<polygon class="st6" points="250.8,214.4 250.8,207.2 202.1,184.6 202.1,214.4 		"/>
		<linearGradient id="SVGID_11_" gradientUnits="userSpaceOnUse" x1="226.4258" y1="212.0044" x2="226.4258" y2="154.5217">
			<stop  offset="0" style="stop-color:#EF4725"/>
			<stop  offset="0.5138" style="stop-color:#FED500"/>
			<stop  offset="1" style="stop-color:#FCF395"/>
		</linearGradient>
		<polygon class="st7" points="250.8,214.4 250.8,207.2 202.1,184.6 202.1,214.4 		"/>
		<linearGradient id="SVGID_12_" gradientUnits="userSpaceOnUse" x1="-7.9892" y1="119.1392" x2="306.0764" y2="267.3324">
			<stop  offset="0" style="stop-color:#F47721"/>
			<stop  offset="0.2" style="stop-color:#FED500"/>
			<stop  offset="0.5" style="stop-color:#FCF395"/>
			<stop  offset="0.8" style="stop-color:#FED500"/>
			<stop  offset="1" style="stop-color:#F47721"/>
		</linearGradient>
		<polygon style="fill:url(#SVGID_12_);" points="188.2,214.4 188.2,186 139.5,200.3 139.5,214.4 		"/>
		<linearGradient id="SVGID_13_" gradientUnits="userSpaceOnUse" x1="163.8314" y1="212.0044" x2="163.8314" y2="154.5217">
			<stop  offset="0" style="stop-color:#EF4725"/>
			<stop  offset="0.5138" style="stop-color:#FED500"/>
			<stop  offset="1" style="stop-color:#FCF395"/>
		</linearGradient>
		<polygon style="fill:url(#SVGID_13_);" points="188.2,214.4 188.2,186 139.5,200.3 139.5,214.4 		"/>
		<linearGradient id="SVGID_14_" gradientUnits="userSpaceOnUse" x1="-21.2794" y1="147.305" x2="292.7862" y2="295.4983">
			<stop  offset="0" style="stop-color:#F47721"/>
			<stop  offset="0.2" style="stop-color:#FED500"/>
			<stop  offset="0.5" style="stop-color:#FCF395"/>
			<stop  offset="0.8" style="stop-color:#FED500"/>
			<stop  offset="1" style="stop-color:#F47721"/>
		</linearGradient>
		<polygon style="fill:url(#SVGID_14_);" points="83.9,207.4 83.9,214.4 118.6,214.4 118.6,207.4 125.6,207.4 125.6,201.6 
			76.9,176.2 76.9,207.4 		"/>
		<linearGradient id="SVGID_15_" gradientUnits="userSpaceOnUse" x1="101.2363" y1="212.0044" x2="101.2363" y2="154.5217">
			<stop  offset="0" style="stop-color:#EF4725"/>
			<stop  offset="0.5138" style="stop-color:#FED500"/>
			<stop  offset="1" style="stop-color:#FCF395"/>
		</linearGradient>
		<polygon style="fill:url(#SVGID_15_);" points="83.9,207.4 83.9,214.4 118.6,214.4 118.6,207.4 125.6,207.4 125.6,201.6 
			76.9,176.2 76.9,207.4 		"/>
		<linearGradient id="SVGID_16_" gradientUnits="userSpaceOnUse" x1="-29.1847" y1="164.0588" x2="284.8809" y2="312.252">
			<stop  offset="0" style="stop-color:#F47721"/>
			<stop  offset="0.2" style="stop-color:#FED500"/>
			<stop  offset="0.5" style="stop-color:#FCF395"/>
			<stop  offset="0.8" style="stop-color:#FED500"/>
			<stop  offset="1" style="stop-color:#F47721"/>
		</linearGradient>
		<polygon class="st14" points="28.2,214.4 28.2,200.4 56,200.4 56,193.5 63,193.5 63,177.7 14.3,195.3 14.3,214.4 		"/>
		<linearGradient id="SVGID_17_" gradientUnits="userSpaceOnUse" x1="38.6418" y1="212.0044" x2="38.6418" y2="154.5217">
			<stop  offset="0" style="stop-color:#EF4725"/>
			<stop  offset="0.5138" style="stop-color:#FED500"/>
			<stop  offset="1" style="stop-color:#FCF395"/>
		</linearGradient>
		<polygon class="st15" points="28.2,214.4 28.2,200.4 56,200.4 56,193.5 63,193.5 63,177.7 14.3,195.3 14.3,214.4 		"/>
	</g>
	<g>
		<linearGradient id="SVGID_18_" gradientUnits="userSpaceOnUse" x1="19.4726" y1="57.9429" x2="338.0972" y2="208.2873">
			<stop  offset="0" style="stop-color:#F47721"/>
			<stop  offset="0.2" style="stop-color:#FED500"/>
			<stop  offset="0.5" style="stop-color:#FCF395"/>
			<stop  offset="0.8" style="stop-color:#FED500"/>
			<stop  offset="1" style="stop-color:#F47721"/>
		</linearGradient>
		<polygon class="st16" points="118.9,86.8 111.9,79.9 76.6,79.9 69.6,86.8 69.6,103.2 118.9,94.6 		"/>
		<linearGradient id="SVGID_19_" gradientUnits="userSpaceOnUse" x1="8.892" y1="83.3628" x2="322.9576" y2="231.556">
			<stop  offset="0" style="stop-color:#F47721"/>
			<stop  offset="0.2" style="stop-color:#FED500"/>
			<stop  offset="0.5" style="stop-color:#FCF395"/>
			<stop  offset="0.8" style="stop-color:#FED500"/>
			<stop  offset="1" style="stop-color:#F47721"/>
		</linearGradient>
		<polygon class="st17" points="28.2,80.3 14.3,80.3 14.3,98.1 28.2,96.1 		"/>
		<g>
			<linearGradient id="SVGID_20_" gradientUnits="userSpaceOnUse" x1="26.9339" y1="38.1774" x2="347.5172" y2="189.4461">
				<stop  offset="0" style="stop-color:#F47721"/>
				<stop  offset="0.2" style="stop-color:#FED500"/>
				<stop  offset="0.5" style="stop-color:#FCF395"/>
				<stop  offset="0.8" style="stop-color:#FED500"/>
				<stop  offset="1" style="stop-color:#F47721"/>
			</linearGradient>
			<polygon class="st18" points="181.7,108.2 181.7,87.1 174.6,87.1 174.6,80.3 139,80.3 139,87.1 131.9,87.1 131.9,103 146.2,122 
							"/>
			<g>
				<linearGradient id="SVGID_21_" gradientUnits="userSpaceOnUse" x1="44.9765" y1="6.889" x2="359.0421" y2="155.0822">
					<stop  offset="0" style="stop-color:#F47721"/>
					<stop  offset="0.2" style="stop-color:#FED500"/>
					<stop  offset="0.5" style="stop-color:#FCF395"/>
					<stop  offset="0.8" style="stop-color:#FED500"/>
					<stop  offset="1" style="stop-color:#F47721"/>
				</linearGradient>
				<polygon class="st19" points="222.9,87.1 236.8,87.1 236.8,80.3 195.1,80.3 195.1,87.1 209.1,87.1 209.1,100.2 222.9,107.9 				
					"/>
				<linearGradient id="SVGID_22_" gradientUnits="userSpaceOnUse" x1="33.3001" y1="31.6347" x2="347.3657" y2="179.828">
					<stop  offset="0" style="stop-color:#F47721"/>
					<stop  offset="0.2" style="stop-color:#FED500"/>
					<stop  offset="0.5" style="stop-color:#FCF395"/>
					<stop  offset="0.8" style="stop-color:#FED500"/>
					<stop  offset="1" style="stop-color:#F47721"/>
				</linearGradient>
				<polygon class="st20" points="222.9,129 222.9,107.9 209.1,100.2 209.1,129 				"/>
				<linearGradient id="SVGID_23_" gradientUnits="userSpaceOnUse" x1="215.9813" y1="128.2882" x2="215.9813" y2="79.9304">
					<stop  offset="0" style="stop-color:#EF4725"/>
					<stop  offset="0.5138" style="stop-color:#FED500"/>
					<stop  offset="1" style="stop-color:#FCF395"/>
				</linearGradient>
				<polygon class="st21" points="222.9,129 222.9,107.9 209.1,100.2 209.1,129 				"/>
			</g>
			<linearGradient id="SVGID_24_" gradientUnits="userSpaceOnUse" x1="22.8721" y1="53.7348" x2="336.9377" y2="201.928">
				<stop  offset="0" style="stop-color:#F47721"/>
				<stop  offset="0.2" style="stop-color:#FED500"/>
				<stop  offset="0.5" style="stop-color:#FCF395"/>
				<stop  offset="0.8" style="stop-color:#FED500"/>
				<stop  offset="1" style="stop-color:#F47721"/>
			</linearGradient>
			<polygon style="fill:url(#SVGID_24_);" points="139.5,122 139.5,129 174.2,129 174.2,122 181.2,122 181.2,108.2 146.5,122 
				132.6,103 132.6,122 			"/>
			<linearGradient id="SVGID_25_" gradientUnits="userSpaceOnUse" x1="156.8123" y1="128.2882" x2="156.8123" y2="79.9304">
				<stop  offset="0" style="stop-color:#EF4725"/>
				<stop  offset="0.5138" style="stop-color:#FED500"/>
				<stop  offset="1" style="stop-color:#FCF395"/>
			</linearGradient>
			<polygon style="fill:url(#SVGID_25_);" points="139,122 139,129 174.6,129 174.6,122 181.7,122 181.7,108.2 146.2,122 131.9,103 
				131.9,122 			"/>
		</g>
		<linearGradient id="SVGID_26_" gradientUnits="userSpaceOnUse" x1="14.0804" y1="72.367" x2="328.146" y2="220.5602">
			<stop  offset="0" style="stop-color:#F47721"/>
			<stop  offset="0.2" style="stop-color:#FED500"/>
			<stop  offset="0.5" style="stop-color:#FCF395"/>
			<stop  offset="0.8" style="stop-color:#FED500"/>
			<stop  offset="1" style="stop-color:#F47721"/>
		</linearGradient>
		<polygon style="fill:url(#SVGID_26_);" points="76.9,122 76.9,129 111.6,129 111.6,122 118.6,122 118.6,94.7 70,103.2 70,122 		
			"/>
		<linearGradient id="SVGID_27_" gradientUnits="userSpaceOnUse" x1="70.9125" y1="129.4068" x2="169.0903" y2="64.4828">
			<stop  offset="0" style="stop-color:#EF4725"/>
			<stop  offset="0.5138" style="stop-color:#FED500"/>
			<stop  offset="1" style="stop-color:#FCF395"/>
		</linearGradient>
		<polygon style="fill:url(#SVGID_27_);" points="76.6,129.4 111.9,129.4 118.9,122.3 118.9,94.6 69.6,103.2 69.6,122.3 		"/>
		<linearGradient id="SVGID_28_" gradientUnits="userSpaceOnUse" x1="-0.1033" y1="102.4266" x2="313.9623" y2="250.6198">
			<stop  offset="0" style="stop-color:#F47721"/>
			<stop  offset="0.2" style="stop-color:#FED500"/>
			<stop  offset="0.5" style="stop-color:#FCF395"/>
			<stop  offset="0.8" style="stop-color:#FED500"/>
			<stop  offset="1" style="stop-color:#F47721"/>
		</linearGradient>
		<polygon style="fill:url(#SVGID_28_);" points="56,129 56,122 28.2,122 28.2,96.1 14.3,98.1 14.3,129 		"/>
		<linearGradient id="SVGID_29_" gradientUnits="userSpaceOnUse" x1="35.2814" y1="128.2882" x2="35.2814" y2="79.9304">
			<stop  offset="0" style="stop-color:#EF4725"/>
			<stop  offset="0.5138" style="stop-color:#FED500"/>
			<stop  offset="1" style="stop-color:#FCF395"/>
		</linearGradient>
		<polygon class="st32" points="56.3,129 56.3,122 28.2,122 28.2,96.1 14.3,98.1 14.3,129 		"/>
	</g>
	<g>
		<path d="M14.3,142.7c7,0,14.1,0,21.1,0c7.2,0,14.4,0,21.6,0c4.3,0,8.6,0,12.9,0v-6.9c2.3,0,4.7,0,7,0v6.9c6.6,0,13.1,0,19.7,0
			c6.1,0,12.2,0,18.3,0c3.6,0,7.2,0,10.7,0v-6.9h6.8V129h0.1v6.8h7v6.9c6.6,0,13.1,0,19.7,0c6.1,0,12.2,0,18.3,0c3.6,0,7.2,0,10.7,0
			v-6.9h6.8c0-5.3,0-10.6,0-15.8c0-5.7,0-11.4,0-17.2c0-2.9,0-5.8,0-8.7c2.4,0,4.7,0,7.1,0c0,5.3,0,10.5,0,15.8c0,5.7,0,11.5,0,17.2
			c0,2.9,0,5.8,0,8.7h7v6.9c7,0,14,0,21.1,0c2.2,0,4.4,0,6.7,0c0-5.3,0-10.6,0-15.8c0-5.7,0-11.4,0-17.2c0-2.9,0-5.7,0-8.6
			c4.6,0,9.3,0,13.9,0c0-5.2,0-10.5,0-15.7c0-1.7,0-3.4,0-5.1h-7v-7c-7.1,0-14.1,0-21.2,0c-7.2,0-14.4,0-21.6,0c-4.3,0-8.6,0-12.9,0
			v7h-7v-7c-6.5,0-13.1,0-19.6,0c-6.1,0-12.2,0-18.3,0c-3.6,0-7.2,0-10.7,0v7c-4.6,0-9.3,0-13.9,0v-7c-6.5,0-13.1,0-19.6,0
			c-6.1,0-12.2,0-18.3,0c-3.6,0-7.2,0-10.7,0v7h-7c0,4.6,0,9.2,0,13.8c0,4.6,0,9.2,0,13.8c0,2.4,0,4.8,0,7.2c-5.3,0-10.5,0-15.8,0
			c-1.7,0-3.4,0-5.1,0c0-4.6,0-9.2,0-13.9c0-4.6,0-9.2,0-13.8c0-2.4,0-4.7,0-7.1h-7v-7c-7,0-14,0-21,0c-2.2,0-4.5,0-6.7,0
			c0,8.2,0,16.4,0,24.6c0,8,0,16.1,0,24.1c0,4.6,0,9.2,0,13.8h7V142.7z M202.1,80.3c4.6,0,9.2,0,13.8,0c4.6,0,9.2,0,13.8,0
			c2.4,0,4.8,0,7.1,0v6.8c-4.6,0-9.3,0-13.9,0c0,5.3,0,10.6,0,15.8c0,5.8,0,11.6,0,17.3c0,2.9,0,5.8,0,8.7c-4.6,0-9.2,0-13.8,0
			c0-5.3,0-10.5,0-15.8c0-5.8,0-11.6,0-17.4c0-2.9,0-5.8,0-8.7c-4.6,0-9.3,0-13.9,0v-6.8H202.1z M139.5,87.1v-6.8
			c4.6,0,9.2,0,13.8,0c4.6,0,9.2,0,13.8,0c2.4,0,4.8,0,7.1,0v6.8h7c0,4.6,0,9.3,0,13.9c0,4.6,0,9.2,0,13.8c0,2.4,0,4.8,0,7.2h-7v7
			c-4.6,0-9.2,0-13.9,0c-4.6,0-9.1,0-13.7,0c-2.4,0-4.8,0-7.2,0v-7h-7c0-4.6,0-9.3,0-13.9c0-4.6,0-9.2,0-13.8c0-2.4,0-4.8,0-7.2
			H139.5z M70,108c0-5.3,0-10.5,0-15.8c0-1.7,0-3.4,0-5.1h7v-6.8c4.6,0,9.2,0,13.8,0c4.6,0,9.2,0,13.8,0c2.4,0,4.8,0,7.1,0v6.8h7
			c0,4.6,0,9.3,0,13.9c0,4.6,0,9.2,0,13.8c0,2.4,0,4.8,0,7.2h-7v7c-4.6,0-9.2,0-13.9,0c-4.6,0-9.1,0-13.7,0c-2.4,0-4.8,0-7.2,0v-7
			h-7C70,117.3,70,112.7,70,108z M14.3,122c0-5.3,0-10.5,0-15.8c0-5.7,0-11.5,0-17.2c0-2.9,0-5.8,0-8.7c4.6,0,9.3,0,13.9,0
			c0,5.3,0,10.6,0,15.8c0,5.7,0,11.5,0,17.2c0,2.9,0,5.8,0,8.6c7,0,14,0,21.1,0c2.2,0,4.4,0,6.7,0v7c-5.3,0-10.5,0-15.8,0
			c-5.7,0-11.5,0-17.2,0c-2.9,0-5.8,0-8.6,0V122z"/>
		<path d="M97.7,122h7c0-4.6,0-9.3,0-13.9c0-4.6,0-9.2,0-13.8c0-2.4,0-4.8,0-7.2c-5.2,0-10.5,0-15.7,0c-1.7,0-3.4,0-5.1,0
			c0,4.6,0,9.3,0,13.9c0,4.6,0,9.2,0,13.8c0,2.4,0,4.8,0,7.2C88.5,122,93.1,122,97.7,122z"/>
		<path d="M160.3,122h7c0-4.6,0-9.3,0-13.9c0-4.6,0-9.2,0-13.8c0-2.4,0-4.8,0-7.2c-5.2,0-10.5,0-15.7,0c-1.7,0-3.4,0-5.1,0
			c0,4.6,0,9.3,0,13.9c0,4.6,0,9.2,0,13.8c0,2.4,0,4.8,0,7.2C151.1,122,155.7,122,160.3,122z"/>
		<path d="M42,193.5h7c0-5.3,0-10.5,0-15.8c0-1.7,0-3.4,0-5.1c-5.2,0-10.5,0-15.7,0c-1.7,0-3.4,0-5.1,0c0,5.3,0,10.6,0,15.8
			c0,1.7,0,3.4,0,5.1C32.8,193.5,37.4,193.5,42,193.5z"/>
		<path d="M104.6,207.4h7c0-4.6,0-9.3,0-13.9c0-4.6,0-9.2,0-13.8c0-2.4,0-4.8,0-7.2c-5.2,0-10.5,0-15.7,0c-1.7,0-3.4,0-5.1,0
			c0,4.6,0,9.3,0,13.9c0,4.6,0,9.2,0,13.8c0,2.4,0,4.8,0,7.2C95.4,207.4,100,207.4,104.6,207.4z"/>
		<path d="M320.3,172.5v-6.8h-7v-7c-4.7,0-9.3,0-14,0c-4.7,0-9.4,0-14.1,0c-4.7,0-9.4,0-14.1,0c-4.7,0-9.4,0-14.1,0
			c-4.8,0-9.6,0-14.3,0c-4.8,0-9.6,0-14.3,0c-4.8,0-9.6,0-14.4,0c-4.8,0-9.6,0-14.4,0c-4.8,0-9.6,0-14.4,0c-4.8,0-9.6,0-14.4,0
			c-1.2,0-2.3,0-3.5,0v7h-7v-7c-7,0-14,0-21,0c-2.2,0-4.5,0-6.7,0v7c-2.3,0-4.6,0-7,0v-7c-6.5,0-13.1,0-19.6,0c-6.1,0-12.2,0-18.3,0
			c-3.6,0-7.2,0-10.7,0v7c-4.6,0-9.3,0-13.9,0v-7c-7.1,0-14.1,0-21.2,0c-7.2,0-14.4,0-21.6,0c-4.3,0-8.6,0-12.9,0
			c0,8.2,0,16.4,0,24.6c0,8,0,16.1,0,24.1c0,4.6,0,9.2,0,13.8h7v6.9c7,0,14,0,21,0c2.2,0,4.5,0,6.7,0c0-4.6,0-9.1,0-13.7
			c4.6,0,9.3,0,13.9,0c4.6,0,9.2,0,13.8,0c2.4,0,4.8,0,7.2,0v6.8h7v6.9c6.6,0,13.1,0,19.7,0c6.1,0,12.2,0,18.3,0c3.6,0,7.2,0,10.7,0
			v-6.9c2.3,0,4.7,0,7,0v6.9c7,0,14,0,21,0c2.2,0,4.5,0,6.7,0v-6.9h7v6.9c7,0,14.1,0,21.1,0c2.2,0,4.4,0,6.6,0v-6.9h0.1v6.9
			c8.2,0,16.4,0,24.5,0c8,0,16.1,0,24.1,0c4.6,0,9.2,0,13.8,0v-6.9h0.1v6.9c7,0,14,0,21,0c2.2,0,4.5,0,6.7,0v-6.9h7v6.9
			c7,0,14.1,0,21.1,0c2.2,0,4.4,0,6.6,0c0-7,0-14.1,0-21.1c0-7.2,0-14.3,0-21.5c0-4.3,0-8.6,0-12.9H320.3z M14.3,207.4
			c0-5.3,0-10.5,0-15.8c0-5.7,0-11.5,0-17.2c0-2.9,0-5.8,0-8.7c5.3,0,10.5,0,15.8,0c5.7,0,11.5,0,17.2,0c2.9,0,5.8,0,8.6,0v6.8h7
			c0,5.3,0,10.6,0,15.8c0,1.7,0,3.4,0,5.1h-7v7c-7,0-14.1,0-21.1,0c-2.2,0-4.4,0-6.6,0c0,4.6,0,9.3,0,13.9c-4.6,0-9.3,0-13.9,0
			V207.4z M76.9,207.4c0-4.6,0-9.3,0-13.9c0-4.6,0-9.2,0-13.8c0-2.4,0-4.8,0-7.2h7v-6.8c4.6,0,9.2,0,13.8,0c4.6,0,9.2,0,13.8,0
			c2.4,0,4.8,0,7.1,0v6.8h7c0,4.6,0,9.3,0,13.9c0,4.6,0,9.2,0,13.8c0,2.4,0,4.8,0,7.2h-7v7c-4.6,0-9.2,0-13.9,0c-4.6,0-9.1,0-13.7,0
			c-2.4,0-4.8,0-7.2,0v-7H76.9z M167.2,207.4v-7h-7v7h-6.8v7c-4.6,0-9.3,0-13.9,0c0-6.5,0-13.1,0-19.6c0-6.1,0-12.1,0-18.2
			c0-3.6,0-7.2,0-10.8c4.6,0,9.3,0,13.9,0c0,7,0,14,0,21.1c0,2.2,0,4.4,0,6.7h6.8v-7h7v7h7c0-7,0-14.1,0-21.1c0-2.2,0-4.4,0-6.6
			c4.6,0,9.3,0,13.9,0c0,6.6,0,13.1,0,19.7c0,6.1,0,12.2,0,18.2c0,3.6,0,7.2,0,10.8c-4.6,0-9.3,0-13.9,0v-7H167.2z M202.1,207.4
			c0-5.2,0-10.4,0-15.6c0-5.8,0-11.6,0-17.4c0-2.9,0-5.7,0-8.6h48.7v6.8c-4.6,0-9.2,0-13.9,0c-4.6,0-9.2,0-13.8,0
			c-2.4,0-4.7,0-7.1,0c0,4.7,0,9.3,0,14c7,0,14,0,21.1,0c2.2,0,4.4,0,6.7,0v7c-7,0-14.1,0-21.1,0c-2.2,0-4.4,0-6.6,0
			c0,4.6,0,9.3,0,13.9c4.6,0,9.2,0,13.8,0c4.6,0,9.2,0,13.8,0c2.4,0,4.8,0,7.2,0v7c-6.5,0-13.1,0-19.6,0c-6.1,0-12.2,0-18.3,0
			c-3.6,0-7.2,0-10.7,0V207.4z M299.4,207.4c0-4.6,0-9.3,0-13.9c-5.2,0-10.5,0-15.7,0c-1.7,0-3.4,0-5.1,0c0,5.3,0,10.5,0,15.8
			c0,1.7,0,3.4,0,5.1c-4.6,0-9.3,0-13.9,0c0-6.5,0-13.1,0-19.6c0-6.1,0-12.1,0-18.2c0-3.6,0-7.2,0-10.8c5.3,0,10.5,0,15.8,0
			c5.7,0,11.5,0,17.2,0c2.9,0,5.8,0,8.6,0v6.8h7c0,4.7,0,9.3,0,14h-7v7h7c0,5.3,0,10.5,0,15.8c0,1.7,0,3.4,0,5.1
			c-4.6,0-9.3,0-13.9,0V207.4z"/>
		<path d="M285.4,172.5h-6.8c0,4.7,0,9.3,0,14c5.2,0,10.4,0,15.7,0c1.7,0,3.4,0,5.1,0c0-4.7,0-9.3,0-14
			C294.8,172.5,290.1,172.5,285.4,172.5z"/>
	</g>
	<g>
		<rect x="313.1" y="35.2" class="st84" width="7" height="7"/>
		<rect x="313.1" y="49.2" class="st84" width="7" height="7"/>
		<rect x="320" y="42.2" class="st107" width="7" height="7"/>
		<rect x="320" y="35.2" class="st100" width="7" height="7"/>
		<rect x="320" y="28.3" class="st84" width="7" height="7"/>
		<rect x="320" y="10.8" class="st84" width="7" height="7"/>
		<rect x="326.9" y="35.2" class="st84" width="7" height="7"/>
		<rect x="320" y="56.2" class="st84" width="7" height="7"/>
		<rect x="320" y="70.1" class="st84" width="7" height="7"/>
		<rect x="326.9" y="49.2" class="st84" width="7" height="7"/>
		<rect x="320" y="49.2" class="st100" width="7" height="7"/>
		<rect x="326.9" y="42.2" class="st100" width="7" height="7"/>
		<rect x="333.9" y="42.2" class="st84" width="7" height="7"/>
		<rect x="347.8" y="42.2" class="st84" width="7" height="7"/>
		<rect x="333.9" y="21.3" class="st84" width="7" height="7"/>
		<rect x="306.1" y="21.3" class="st84" width="7" height="7"/>
		<rect x="333.9" y="63.1" class="st84" width="7" height="7"/>
		<rect x="354.8" y="21.3" class="st76" width="7" height="7"/>
		<rect x="340.8" y="77.1" class="st76" width="7" height="7"/>
		<rect x="292.2" y="7.4" class="st76" width="7" height="7"/>
		<g>
			<polygon class="st163" points="271.8,125 271.8,118.2 264.7,118.2 264.7,125 264.7,132.6 271.8,132.6 			"/>
			<polygon class="st163" points="278.6,139.6 278.6,146.4 285.4,146.4 292.2,146.4 292.2,139.6 285.4,139.6 			"/>
			<rect x="271.8" y="132.6" class="st163" width="6.8" height="6.9"/>
			<rect x="313.1" y="132.6" class="st163" width="7" height="7"/>
			<polygon class="st163" points="320,104.8 320,97.8 313.1,97.8 306.1,97.8 306.1,90.9 299.1,90.9 299.1,97.9 306.1,97.9 
				306.1,104.8 313.1,104.8 313.1,111.8 320,111.8 320,118.7 320,125.7 320,132.6 327,132.6 327,125.7 327,118.7 327,111.8 
				327,104.8 			"/>
		</g>
		<g>
			<polygon points="306.1,49.2 313.1,49.2 313.1,49.2 320,49.2 320,42.2 313.1,42.2 313.1,42.2 306.1,42.2 306.1,49.2 299.1,49.2 
				299.1,56.2 306.1,56.2 			"/>
			<path d="M327,97.8V91H320v-7h-7h-6.9V70.1h-7V56.2h-7v13.9h-6.9V84h-6.7h-7v7h-6.9v6.8h-7v41.8h7v6.8h6.9v6.9l48.4,0l0-6.9h6.9
				v-6.8h6.8V97.8H327z M299.1,91h6.9v6.8h-6.9V91z M285.4,146.4h-6.8v-6.8h-6.8v-7h-7.1v-6.9v-7v-0.5h7.1v0.5v7v6.9h6.8h0h0v7h6.8
				h6.8v6.8H285.4z M327,132.6H320v7h-7v-7h7v-20.9h-7v-7h-6.9v-6.9h6.9v-0.1h7v7h6.9V132.6z"/>
		</g>
	</g>
</g>
<g id="Layer_2">
</g>
</svg>
