<?xml version="1.0" encoding="utf-8"?>
<!-- Generator: Adobe Illustrator 23.0.5, SVG Export Plug-In . SVG Version: 6.00 Build 0)  -->
<svg version="1.1" id="Layer_1" xmlns="http://www.w3.org/2000/svg"  x="0px" y="0px"
	 viewBox="0 0 250 250" style="enable-background:new 0 0 250 250;" xml:space="preserve">
<style type="text/css">
	.st0{fill:url(#SVGID_1_);}
	.st1{fill:#FFFFFF;}
	.st2{fill:#ECCB4A;}
	.st3{fill:#EB678A;}
	.st4{fill:#AFD077;}
	.st5{fill:#5B86C4;}
</style>
<g>
	<g>
		<path d="M168.6,55.6c8.5,0,11,2.3,13.2,10.7c15.9,6.1,25.7,20.6,25.3,37.5c-0.1,2.8,0.8,4.9,2.4,6.9c4.8,6.5,9.6,13,14.2,19.6
			c5,7.2,4.4,16.3-1.3,22.3c-3.6,3.8-8,5.8-12.6,5.8c-3.2,0-6.6-1-9.8-3c-6.5-4-12.8-8.3-19.1-12.6c-1.3-0.9-2.5-1.5-4-1.5
			c-0.4,0-0.9,0-1.3,0.1c-2.8,0.6-5.5,0.9-8.2,0.9c-6.9,0-13.6-2-19.8-5.8c-1.5-0.9-2.9-1.4-4.4-1.4c-0.7,0-1.5,0.1-2.3,0.3
			c-12.6,3.3-25.2,6.5-37.8,9.6c-2.4,0.6-3.9,1.7-5.1,3.8c-5,9-12.5,15.1-22.4,18c-2,0.6-2.9,1.9-3.8,3.5
			c-3.2,6.2-6.5,12.4-9.7,18.7c-2.7,5.4-6.7,9-12.7,10.4c-1.3,0.3-2.7,0.5-4,0.5c-9.8,0-18.3-8.4-17.4-18.7
			c0.7-8.2,2.1-16.3,3.1-24.4c0.3-2.3,0.7-4.6-0.6-6.9c-8.4-14.8-7.7-29.3,1.7-43.5c0.6-1,1.2-2.1,1.8-3.1l0,0l0,0
			c-2.5-8.4-0.1-12.3,10.2-16.9c3-1.3,5.3-2,7.5-2c3.4,0,6.1,1.7,9.3,5.4c6.9,0.7,14,1.1,20.4,4.4c0.4,0.2,0.8,0.3,1.2,0.3
			c0.9,0,1.9-0.4,2.8-0.7c15.8-4,31.6-8.1,47.3-12c2-0.5,3.4-1.4,4.7-3.1c2.7-3.8,6.3-6.8,10.3-9.2c1.6-1,3.4-1.9,4.3-3.7l0,0l0,0
			c-0.2-7.7,7.9-10.2,16.4-10.3C168.4,55.6,168.5,55.6,168.6,55.6 M168.6,36.8h-0.5c-12,0.1-21.3,3.4-27.6,9.9
			c-2.4,2.5-4.3,5.4-5.5,8.5c-4,2.7-7.5,5.8-10.4,9.2c-8.6,2.2-17.3,4.4-25.9,6.6c-5,1.3-10,2.5-15,3.8c-5.1-1.8-10.1-2.6-14.5-3.1
			c-4-3.1-9.9-6.2-17.6-6.2c-6.3,0-11.7,2.1-15.2,3.7c-6.1,2.7-13.7,6.9-18.3,14.5c-3.4,5.6-4.1,11.2-3.9,15.8
			c-10.6,18.1-11.3,37.4-2,56.1c-0.3,2.3-0.6,4.6-0.9,6.9c-0.8,5.5-1.6,11.2-2.1,17c-0.9,9.9,2.5,19.8,9.3,27.2
			c6.9,7.5,16.7,11.9,26.9,11.9c2.8,0,5.5-0.3,8.2-1c11.1-2.6,19.8-9.6,25.2-20.2c1.9-3.8,4-7.8,6-11.6c0.5-1,1.1-2.1,1.6-3.1
			c10.4-4.3,19-11.3,25.3-20.7c10.6-2.6,20.4-5.1,29.9-7.6c8.2,4.3,16.8,6.4,25.8,6.4c2.1,0,4.3-0.1,6.5-0.4
			c5.2,3.6,10.6,7.2,16.2,10.6c6.1,3.8,12.9,5.8,19.7,5.8c9.8,0,19.1-4.1,26.2-11.6c11.9-12.5,13.2-31.3,3.1-45.9
			c-4-5.8-8.1-11.4-12.1-16.8l-1.1-1.4c-0.4-20.5-11.4-38.7-29.1-48.7C192.7,44.4,185,36.8,168.6,36.8L168.6,36.8z"/>
		
			<linearGradient id="SVGID_1_" gradientUnits="userSpaceOnUse" x1="22.5012" y1="28.6891" x2="229.1003" y2="28.6891" gradientTransform="matrix(1 0 0 -1 0 156.4444)">
			<stop  offset="0" style="stop-color:#E42935"/>
			<stop  offset="1" style="stop-color:#951B81"/>
		</linearGradient>
		<path class="st0" d="M45.3,202c-5.5,0-10.8-2.4-14.6-6.5c-3.7-4-5.4-9.2-4.9-14.5c0.5-5.4,1.3-10.9,2-16.2
			c0.4-2.8,0.8-5.5,1.1-8.3L29,156c0.3-2,0.5-3.6-0.4-5.1c-8.7-15.4-8.1-30.8,1.8-45.7c0.4-0.6,0.8-1.3,1.1-1.9
			c0-0.1,0.1-0.2,0.1-0.3c-2.4-8.9,0.7-13.7,11.6-18.6c3.4-1.5,6-2.2,8.3-2.2c3.7,0,6.8,1.7,10.3,5.5l1.6,0.2
			c6.3,0.6,12.7,1.3,18.7,4.4c0.1,0,0.1,0,0.2,0c0.5,0,0.9-0.1,1.3-0.3c0.3-0.1,0.6-0.2,1-0.3c6-1.5,12-3,18-4.6
			c9.8-2.5,19.6-5,29.4-7.4c1.6-0.4,2.6-1,3.5-2.3c2.7-3.8,6.3-6.9,10.9-9.7l0.6-0.4c1.1-0.6,2.1-1.2,2.7-2.1c0.1-2.7,1-5,2.8-6.9
			c3.8-4,10.6-4.8,15.7-4.9h0.4c9,0,12.5,2.5,15,11.2c16.1,6.7,26.1,21.9,25.6,39.1c-0.1,2.1,0.5,3.7,1.9,5.7l2.4,3.3
			c3.9,5.3,8,10.8,11.8,16.4c5.5,7.9,4.9,18.2-1.5,24.9c-4,4.2-8.9,6.4-14.1,6.4l0,0c-3.7,0-7.4-1.1-10.9-3.3
			c-6-3.8-12-7.8-17.7-11.7l-1.4-0.9c-1.2-0.8-2-1.1-2.8-1.1c-0.3,0-0.6,0-0.9,0.1c-2.9,0.6-5.8,0.9-8.6,0.9c-7.2,0-14.3-2-20.9-6.1
			c-1.2-0.8-2.3-1.1-3.4-1.1c-0.5,0-1.1,0.1-1.8,0.3c-11.9,3.1-24.2,6.3-37.8,9.6c-1.9,0.5-2.9,1.2-3.8,2.8
			c-5.3,9.5-13.3,15.9-23.7,19c-1.1,0.3-1.7,0.9-2.5,2.5c-1.2,2.3-2.4,4.6-3.6,6.9c-2,3.9-4.1,7.8-6.1,11.7
			c-3.2,6.3-7.8,10-14.1,11.5C48.3,201.8,46.8,202,45.3,202z"/>
		<path class="st1" d="M168.6,55.6c8.5,0,11,2.3,13.2,10.7c15.9,6.1,25.7,20.6,25.3,37.5c-0.1,2.8,0.8,4.9,2.4,6.9
			c4.8,6.5,9.6,13,14.2,19.6c5,7.2,4.4,16.3-1.3,22.3c-3.6,3.8-8,5.8-12.6,5.8c-3.2,0-6.6-1-9.8-3c-6.5-4-12.8-8.3-19.1-12.6
			c-1.3-0.9-2.5-1.5-4-1.5c-0.4,0-0.9,0-1.3,0.1c-2.8,0.6-5.5,0.9-8.2,0.9c-6.9,0-13.6-2-19.8-5.8c-1.5-0.9-2.9-1.4-4.4-1.4
			c-0.7,0-1.5,0.1-2.3,0.3c-12.6,3.3-25.2,6.5-37.8,9.6c-2.4,0.6-3.9,1.7-5.1,3.8c-5,9-12.5,15.1-22.4,18c-2,0.6-2.9,1.9-3.8,3.5
			c-3.2,6.2-6.5,12.4-9.7,18.7c-2.7,5.4-6.7,9-12.7,10.4c-1.3,0.3-2.7,0.5-4,0.5c-9.8,0-18.3-8.4-17.4-18.7
			c0.7-8.2,2.1-16.3,3.1-24.4c0.3-2.3,0.7-4.6-0.6-6.9c-8.4-14.8-7.7-29.3,1.7-43.5c0.6-1,1.2-2.1,1.8-3.1l0,0l0,0
			c-2.5-8.4-0.1-12.3,10.2-16.9c3-1.3,5.3-2,7.5-2c3.4,0,6.1,1.7,9.3,5.4c6.9,0.7,14,1.1,20.4,4.4c0.4,0.2,0.8,0.3,1.2,0.3
			c0.9,0,1.9-0.4,2.8-0.7c15.8-4,31.6-8.1,47.3-12c2-0.5,3.4-1.4,4.7-3.1c2.7-3.8,6.3-6.8,10.3-9.2c1.6-1,3.4-1.9,4.3-3.7l0,0l0,0
			c-0.2-7.7,7.9-10.2,16.4-10.3C168.4,55.6,168.5,55.6,168.6,55.6 M168.6,51.4h-0.4c-5.4,0-12.8,1-17.2,5.5c-2,2.1-3.1,4.7-3.4,7.6
			c-0.4,0.4-1,0.7-1.7,1.1l-0.7,0.4c-4.9,2.9-8.6,6.3-11.5,10.3c-0.6,0.8-1.2,1.2-2.3,1.5c-9.8,2.4-19.5,4.9-29.2,7.4
			c-6,1.5-12.1,3.1-18.1,4.6c-0.4,0.1-0.7,0.2-1.1,0.3c-0.1,0-0.3,0.1-0.4,0.1c-6.2-3.1-12.7-3.8-19-4.4c-0.3,0-0.5-0.1-0.8-0.1
			c-2.8-2.9-6.3-5.6-11.3-5.6c-2.7,0-5.5,0.7-9.2,2.4C32.6,87,27,92,29.5,102.7c-0.3,0.5-0.5,0.9-0.8,1.3
			c-10.4,15.6-11,31.7-1.9,47.8c0.5,0.9,0.4,1.9,0.2,3.8l-0.1,0.5c-0.4,2.8-0.7,5.5-1.1,8.3c-0.8,5.3-1.5,10.8-2,16.3
			c-0.5,5.9,1.4,11.6,5.5,16.1c4.2,4.5,10,7.1,16.1,7.1c1.6,0,3.3-0.2,4.9-0.6c6.9-1.6,12.1-5.8,15.5-12.6c2-3.9,4.1-7.9,6.1-11.7
			c1.2-2.3,2.4-4.6,3.6-6.9c0.7-1.3,0.9-1.4,1.2-1.4c10.9-3.3,19.3-10,24.9-20c0.6-1.1,1.1-1.5,2.5-1.8c13.7-3.4,26-6.5,37.9-9.6
			c0.5-0.1,0.9-0.2,1.2-0.2c0.5,0,1.1,0.1,2.3,0.8c6.9,4.2,14.3,6.4,22,6.4c3,0,6-0.3,9-1c0.2,0,0.3-0.1,0.5-0.1
			c0.3,0,0.6,0.1,1.7,0.8l1.4,0.9c5.8,3.9,11.7,8,17.8,11.8c3.8,2.4,7.9,3.6,12,3.6c5.8,0,11.3-2.5,15.6-7
			c7.1-7.4,7.8-18.7,1.7-27.5c-3.9-5.6-7.9-11.1-11.9-16.4l-2.4-3.2c-1.2-1.6-1.6-2.8-1.5-4.4c0.5-17.8-9.6-33.5-26-40.7
			C182.5,54.3,178.2,51.4,168.6,51.4L168.6,51.4z"/>
	</g>
	<g>
		<path d="M57.2,103c-15,3.7-24.2,18.9-20.5,33.8c3.8,15.2,18.6,24,33.7,20.3c15.2-3.8,24-18.5,20.2-33.7
			C87,108.5,71.8,99.3,57.2,103z"/>
		<path d="M161.6,76.4c-14.8,3.6-23.9,19-20.3,34c3.5,14.5,19,23.7,33.6,20c15.3-3.9,24.1-18.4,20.3-33.6
			C191.4,81.5,176.8,72.7,161.6,76.4z"/>
	</g>
	<path d="M128.4,123.9c-1.7-0.3-4.2,2.2-5-0.6c-0.8-2.6,2.2-2.6,3.9-3.1c1.7-0.5,4.3-1.9,5,0.7C133.2,123.9,129.7,122.7,128.4,123.9
		z"/>
	<path d="M107.3,125.2c1.6,0.1,3.9-1.8,4.3,1.1c0.4,2.8-2.6,2.2-4.2,2.7c-1.4,0.4-3.9,1.9-4.3-0.9
		C102.8,125.2,105.9,126.1,107.3,125.2z"/>
	<path class="st1" d="M54.2,131.9c-0.2,1.6,2.3,3.8-0.7,5.2c-1.5,0.7-8.5-1.9-8.9-3.1c-0.3-1.1,4.4-6.7,6.2-7.1
		C52.4,126.5,53,127.4,54.2,131.9z"/>
	<path class="st1" d="M72,127c0.3-1.9-2.4-4.4,1.1-5.6c2-0.7,8.9,2.2,8.6,3.4c-0.8,3.3-3.4,5.5-6.1,6.5
		C72.2,132.5,73.2,128.6,72,127z"/>
	<path class="st1" d="M70.9,138.9c-0.9,2.8-0.4,6.2-3.1,8.3c-1,0.8-6.7-4-6.9-6.1c-0.5-3.4,2.5-2.8,4.2-3.2
		C66.9,137.5,69.3,135.5,70.9,138.9z"/>
	<path class="st1" d="M60.4,119.9c-1.9-0.3-4.7,2.3-5.1-1.1c-0.4-2.9,0.2-6.3,2.7-8.5c0.9-0.8,6.7,4.1,6.9,6.1
		C65.5,120.1,61.9,118.7,60.4,119.9z"/>
	<path class="st2" d="M156,111.8c-3.3,0.6-6.9-2-7.5-5.4c-0.7-3.4,1.8-7,5.2-7.5c3.9-0.6,6.6,1.4,7.4,5.3
		C161.7,107.5,159.3,111.2,156,111.8z"/>
	<path class="st3" d="M165.6,95.8c-3.4,0.8-7.1-1.5-7.8-4.9c-0.7-3.5,1.7-6.9,5.3-7.6c3.3-0.7,6.6,1.5,7.4,4.8
		C171.4,91.5,169.2,95,165.6,95.8z"/>
	<path class="st4" d="M186.6,96.2c0.9,3.5-1.1,6.9-4.8,7.8c-3.4,0.9-6.6-1-7.5-4.4c-1-3.6,1-7.2,4.3-8.1
		C182,90.7,185.7,92.8,186.6,96.2z"/>
	<path class="st5" d="M172.2,121.1c-3.6,0.9-6.6-0.9-7.5-4.5c-0.9-3.6,1.2-7.1,4.7-7.9c3.2-0.7,6.8,1.4,7.6,4.7
		C178,117,175.9,120.3,172.2,121.1z"/>
</g>
</svg>
