<?xml version="1.0" encoding="utf-8"?>
<!-- Generator: Adobe Illustrator 23.0.5, SVG Export Plug-In . SVG Version: 6.00 Build 0)  -->
<svg version="1.1" id="Layer_1" xmlns="http://www.w3.org/2000/svg"  x="0px" y="0px"
	 viewBox="0 0 468.56 190.55" style="enable-background:new 0 0 468.56 190.55;" xml:space="preserve">
<style type="text/css">
	.st0{fill:url(#SVGID_1_);}
	.st1{fill:#FFFFFF;}
	.st2{fill:#ECCB4A;}
	.st3{fill:#EB678A;}
	.st4{fill:#AFD077;}
	.st5{fill:#5B86C4;}
	.st6{fill:url(#SVGID_2_);}
	.st7{fill:url(#SVGID_3_);}
	.st8{fill:url(#SVGID_4_);}
	.st9{fill:url(#SVGID_5_);}
	.st10{fill:#FFFFFF;stroke:#662483;stroke-miterlimit:10;}
	.st11{fill:#E52421;}
	.st12{fill:#010202;}
	.st13{fill:#BA2221;}
	.st14{clip-path:url(#SVGID_7_);}
	.st15{clip-path:url(#SVGID_8_);}
	.st16{fill:url(#SVGID_9_);}
	.st17{fill:url(#SVGID_11_);}
	.st18{fill:url(#SVGID_12_);}
	.st19{fill:url(#SVGID_13_);}
	.st20{fill:url(#SVGID_14_);}
	.st21{fill:#FFFFFF;stroke:#000000;stroke-width:3;stroke-miterlimit:10;}
	.st22{fill:#AFAFAF;}
	.st23{clip-path:url(#SVGID_15_);}
	.st24{clip-path:url(#SVGID_16_);}
	.st25{clip-path:url(#SVGID_17_);}
	.st26{clip-path:url(#SVGID_18_);}
	.st27{clip-path:url(#SVGID_20_);}
	.st28{clip-path:url(#SVGID_21_);}
	.st29{clip-path:url(#SVGID_22_);}
	.st30{clip-path:url(#SVGID_24_);}
	.st31{fill:url(#SVGID_25_);}
	.st32{fill:url(#SVGID_26_);}
	.st33{fill:url(#SVGID_28_);}
	.st34{fill:url(#SVGID_29_);}
	.st35{fill:url(#SVGID_30_);}
	.st36{fill:url(#SVGID_32_);}
	.st37{fill:url(#SVGID_33_);}
	.st38{fill:url(#SVGID_34_);}
	.st39{fill:url(#SVGID_36_);}
	.st40{fill:url(#SVGID_37_);}
	.st41{fill:url(#SVGID_38_);}
	.st42{fill:url(#SVGID_40_);}
	.st43{fill:url(#SVGID_41_);}
	.st44{fill:url(#SVGID_42_);}
	.st45{fill:none;}
	.st46{fill:url(#SVGID_44_);}
	.st47{fill:url(#SVGID_45_);stroke:#FFFFFF;stroke-width:2;stroke-linecap:round;}
	.st48{fill:url(#SVGID_46_);}
	.st49{fill:url(#SVGID_48_);}
	.st50{fill:#E6007E;}
	.st51{fill:url(#SVGID_49_);}
	.st52{fill:url(#SVGID_50_);}
	.st53{fill:none;stroke:#000000;stroke-width:16;stroke-linecap:round;stroke-linejoin:round;}
	.st54{fill:url(#SVGID_51_);}
	.st55{fill:url(#SVGID_52_);}
	.st56{fill:url(#SVGID_53_);}
	.st57{fill:url(#SVGID_54_);}
	.st58{fill:none;stroke:#FFFFFF;stroke-width:2;}
	.st59{fill:url(#SVGID_55_);fill-opacity:0.26;}
	.st60{fill:url(#SVGID_56_);}
	.st61{fill:url(#SVGID_57_);}
	.st62{fill:url(#SVGID_58_);}
	.st63{fill:url(#SVGID_59_);}
	.st64{fill:url(#SVGID_60_);}
	.st65{fill:url(#SVGID_61_);}
	.st66{fill:url(#SVGID_62_);}
	.st67{fill:url(#SVGID_63_);fill-opacity:0.26;}
	.st68{fill:url(#SVGID_64_);}
	.st69{fill:url(#SVGID_65_);}
	.st70{fill:url(#SVGID_66_);}
	.st71{fill:url(#SVGID_67_);}
	.st72{fill:url(#SVGID_68_);}
	.st73{fill:url(#SVGID_69_);}
	.st74{fill:url(#SVGID_70_);}
	.st75{fill:url(#SVGID_71_);fill-opacity:0.26;}
</style>
<g>
	<g>
		<path d="M379.81,15.36c4.09,0,5.29,1.08,6.35,5.12c7.6,2.93,12.34,9.9,12.12,17.98c-0.04,1.33,0.39,2.33,1.13,3.33
			c2.29,3.11,4.6,6.21,6.8,9.38c2.4,3.47,2.09,7.83-0.62,10.67c-1.73,1.82-3.85,2.76-6.06,2.76c-1.55,0-3.15-0.47-4.69-1.42
			c-3.1-1.93-6.12-4-9.14-6.05c-0.63-0.43-1.21-0.72-1.92-0.72c-0.2,0-0.41,0.02-0.64,0.07c-1.33,0.28-2.63,0.42-3.91,0.42
			c-3.32,0-6.5-0.94-9.49-2.77c-0.72-0.44-1.39-0.67-2.13-0.67c-0.35,0-0.71,0.05-1.1,0.15c-6.03,1.59-12.07,3.12-18.13,4.61
			c-1.13,0.28-1.88,0.8-2.46,1.82c-2.41,4.32-6.01,7.23-10.76,8.64c-0.94,0.28-1.4,0.91-1.8,1.69c-1.55,2.99-3.13,5.96-4.65,8.96
			c-1.3,2.57-3.23,4.31-6.1,4.98c-0.64,0.15-1.28,0.22-1.9,0.22c-4.71,0-8.79-4.02-8.36-8.96c0.35-3.92,0.99-7.81,1.49-11.71
			c0.14-1.12,0.34-2.21-0.29-3.33c-4.01-7.1-3.68-14.06,0.83-20.85c0.31-0.47,0.57-0.99,0.86-1.48c0,0,0,0,0,0c0,0,0,0,0,0
			c-1.19-4.03-0.07-5.89,4.89-8.12c1.42-0.64,2.56-0.97,3.59-0.97c1.61,0,2.91,0.83,4.47,2.6c3.33,0.35,6.71,0.52,9.77,2.13
			c0.19,0.1,0.37,0.13,0.56,0.13c0.44,0,0.89-0.21,1.32-0.32c7.57-1.92,15.13-3.86,22.7-5.76c0.95-0.24,1.64-0.65,2.23-1.48
			c1.31-1.81,3.01-3.24,4.93-4.4c0.78-0.48,1.64-0.89,2.07-1.78c0,0,0,0,0,0c0,0,0,0,0,0c-0.1-3.7,3.8-4.89,7.87-4.92
			C379.7,15.36,379.76,15.36,379.81,15.36 M379.81,6.36l-0.22,0C373.85,6.4,369.4,8,366.37,11.13c-1.15,1.19-2.04,2.57-2.65,4.08
			c-1.91,1.3-3.59,2.78-5,4.41c-4.14,1.04-8.28,2.1-12.41,3.15c-2.4,0.61-4.8,1.22-7.2,1.83c-2.45-0.86-4.83-1.24-6.97-1.48
			c-1.94-1.5-4.75-2.97-8.42-2.97c-3.01,0-5.59,1-7.27,1.76c-2.93,1.31-6.57,3.29-8.77,6.95c-1.62,2.69-1.97,5.39-1.86,7.59
			c-5.1,8.67-5.43,17.91-0.97,26.89c-0.14,1.11-0.3,2.21-0.45,3.32c-0.37,2.63-0.75,5.35-1,8.15c-0.42,4.76,1.2,9.51,4.44,13.06
			c3.31,3.62,8.01,5.69,12.88,5.69c1.33,0,2.65-0.15,3.95-0.46c5.32-1.24,9.49-4.59,12.07-9.68c0.93-1.83,1.91-3.71,2.86-5.53
			c0.26-0.5,0.52-1,0.79-1.5c4.99-2.04,9.12-5.41,12.14-9.91c5.07-1.26,9.79-2.46,14.32-3.64c3.92,2.04,8.07,3.07,12.37,3.07
			c1.03,0,2.07-0.06,3.11-0.18c2.51,1.71,5.09,3.45,7.76,5.1c2.92,1.82,6.19,2.78,9.43,2.78c4.7,0,9.16-1.97,12.57-5.55
			c5.7-5.99,6.32-15.03,1.51-22c-1.91-2.76-3.9-5.46-5.82-8.06l-0.51-0.69c-0.2-9.84-5.47-18.55-13.94-23.37
			C391.39,10,387.67,6.36,379.81,6.36L379.81,6.36z"/>
		<linearGradient id="SVGID_1_" gradientUnits="userSpaceOnUse" x1="310.7614" y1="49.961" x2="407.8244" y2="49.961">
			<stop  offset="0" style="stop-color:#E6332A"/>
			<stop  offset="0.3159" style="stop-color:#D02E4D"/>
			<stop  offset="1" style="stop-color:#951B81"/>
		</linearGradient>
		<path class="st0" d="M406.2,51.18c-2.2-3.18-4.51-6.27-6.8-9.38c-0.74-1.01-1.16-2.01-1.13-3.33c0.23-8.08-4.52-15.06-12.12-17.98
			c-1.07-4.09-2.28-5.15-6.51-5.12c-4.08,0.03-7.97,1.22-7.87,4.92c0,0,0,0,0,0c0,0,0,0,0,0c-0.43,0.89-1.29,1.3-2.07,1.78
			c-1.92,1.16-3.62,2.59-4.93,4.4c-0.6,0.82-1.28,1.24-2.23,1.48c-7.57,1.9-15.14,3.84-22.7,5.76c-0.61,0.16-1.26,0.51-1.88,0.18
			c-3.07-1.61-6.44-1.77-9.77-2.13c-2.55-2.9-4.4-3.28-8.06-1.63c-4.96,2.23-6.08,4.08-4.89,8.12c0,0,0,0,0,0c0,0,0,0,0,0
			c-0.28,0.49-0.54,1.01-0.86,1.48c-4.51,6.78-4.84,13.75-0.83,20.85c0.64,1.12,0.43,2.21,0.29,3.33c-0.49,3.9-1.14,7.79-1.49,11.71
			c-0.5,5.59,4.81,10.01,10.26,8.74c2.86-0.67,4.79-2.41,6.1-4.98c1.52-3,3.1-5.97,4.65-8.96c0.4-0.78,0.86-1.41,1.8-1.69
			c4.75-1.41,8.35-4.32,10.76-8.64c0.57-1.03,1.32-1.54,2.46-1.82c6.05-1.49,12.1-3.02,18.13-4.61c1.22-0.32,2.17-0.13,3.23,0.51
			c4.15,2.53,8.63,3.36,13.4,2.35c1.04-0.22,1.76,0.1,2.56,0.65c3.02,2.06,6.03,4.13,9.14,6.05c3.74,2.32,7.8,1.75,10.74-1.34
			C408.29,59.01,408.6,54.65,406.2,51.18z"/>
	</g>
	<g>
		<path d="M326.4,38.08c-7.19,1.78-11.6,9.07-9.81,16.2c1.83,7.28,8.9,11.52,16.18,9.71c7.3-1.82,11.52-8.88,9.69-16.18
			C340.68,40.73,333.43,36.34,326.4,38.08z"/>
		<path d="M376.45,25.36c-7.09,1.75-11.47,9.09-9.72,16.29c1.69,6.94,9.12,11.37,16.13,9.61c7.35-1.85,11.57-8.82,9.74-16.12
			C390.76,27.79,383.74,23.55,376.45,25.36z"/>
	</g>
	<path d="M360.56,48.1c-0.83-0.16-1.99,1.07-2.38-0.28c-0.38-1.27,1.05-1.25,1.86-1.47c0.82-0.22,2.04-0.91,2.38,0.32
		C362.82,48.1,361.18,47.56,360.56,48.1z"/>
	<path d="M350.42,48.74c0.76,0.04,1.89-0.87,2.08,0.51c0.19,1.36-1.24,1.07-2,1.3c-0.69,0.21-1.85,0.93-2.04-0.44
		C348.26,48.73,349.75,49.19,350.42,48.74z"/>
	<path class="st1" d="M324.94,51.98c-0.08,0.76,1.1,1.81-0.34,2.48c-0.7,0.32-4.08-0.91-4.25-1.47c-0.16-0.55,2.13-3.2,2.95-3.4
		C324.1,49.38,324.39,49.79,324.94,51.98z"/>
	<path class="st1" d="M333.49,49.6c0.13-0.93-1.16-2.13,0.52-2.69c0.97-0.32,4.26,1.04,4.13,1.61c-0.36,1.56-1.64,2.64-2.92,3.13
		C333.6,52.26,334.06,50.35,333.49,49.6z"/>
	<path class="st1" d="M332.96,55.31c-0.43,1.33-0.19,2.98-1.5,4c-0.5,0.39-3.19-1.94-3.33-2.92c-0.23-1.62,1.21-1.34,2.03-1.54
		C331.05,54.64,332.19,53.68,332.96,55.31z"/>
	<path class="st1" d="M327.96,46.21c-0.89-0.14-2.25,1.11-2.46-0.52c-0.18-1.4,0.09-3.03,1.31-4.09c0.45-0.39,3.21,1.95,3.33,2.92
		C330.36,46.29,328.66,45.6,327.96,46.21z"/>
	<path class="st2" d="M373.76,42.32c-1.58,0.28-3.29-0.95-3.61-2.58c-0.32-1.64,0.87-3.36,2.5-3.62c1.85-0.29,3.17,0.65,3.54,2.52
		C376.5,40.28,375.34,42.04,373.76,42.32z"/>
	<path class="st3" d="M378.39,34.64c-1.65,0.38-3.4-0.73-3.72-2.35c-0.32-1.66,0.81-3.29,2.52-3.63c1.56-0.32,3.16,0.71,3.57,2.3
		C381.17,32.56,380.09,34.24,378.39,34.64z"/>
	<path class="st4" d="M388.46,34.84c0.45,1.67-0.55,3.3-2.29,3.74c-1.65,0.41-3.17-0.48-3.61-2.12c-0.46-1.71,0.48-3.47,2.07-3.87
		C386.25,32.17,388.02,33.22,388.46,34.84z"/>
	<path class="st5" d="M381.54,46.8c-1.74,0.41-3.16-0.44-3.59-2.15c-0.44-1.72,0.56-3.41,2.24-3.8c1.54-0.35,3.24,0.68,3.66,2.24
		C384.32,44.79,383.34,46.37,381.54,46.8z"/>
</g>
<g>
	<g>
		<path class="st50" d="M99.98,118.97c-4.47-1.02-9.19-2.7-14.31-3.93c-5.12-1.23-10-2-14.63-2.32c1.08-2.16,2.24-4.28,3.48-6.37
			c1.24-2.08,2.56-4.43,3.96-7.06c2.26-4.32,4.53-9.34,6.79-15.05c2.26-5.71,4.5-11.53,6.71-17.48c2.21-5.94,4.26-11.73,6.14-17.36
			c1.88-5.63,3.58-10.69,5.09-15.17c0.32-1.08,0.54-2.04,0.65-2.89c0.11-0.85,0.16-1.66,0.16-2.43c0-1.85-0.43-3.47-1.29-4.86
			c-0.86-1.39-1.81-2.55-2.83-3.47c-1.03-0.93-2.02-1.66-2.99-2.2c-0.97-0.54-1.56-0.89-1.78-1.04c-1.51,6.48-3.37,14.16-5.58,23.04
			c-2.21,8.88-4.64,17.83-7.28,26.86c-2.64,9.03-5.5,17.59-8.57,25.7c-3.06,8.08-6.26,14.66-9.59,19.75
			c-0.05,0.02-0.11,0.04-0.19,0.04H63.6c-0.32,0-1.29,0.16-2.91,0.46c-1.62,0.31-3.56,0.85-5.82,1.62
			c-2.26,0.77-4.66,1.74-7.19,2.89c-2.53,1.16-4.9,2.58-7.11,4.28c-2.21,1.7-4.02,3.66-5.42,5.9c-1.4,2.24-2.1,4.75-2.1,7.52
			c0,1.23,0.4,2.39,1.21,3.47c0.81,1.08,2.78,1.62,5.9,1.62c1.29,0,2.83-0.27,4.61-0.81c1.78-0.54,3.75-1.5,5.9-2.89
			c2.16-1.39,4.47-3.36,6.95-5.9c2.48-2.55,5.17-5.83,8.08-9.84c0,0,3.29,0.69,4.04,0.69c1.4,0,3.29,0.15,5.66,0.46
			c2.37,0.31,5.33,0.92,8.81,2.08c81.64,27.27,110.98,31.94,196.9,40.01c1.29,0.12,117.72,12.07,157.13-20.28
			c4.11-4,8.28-8.91,8.3-16.33c0.01-4.44-0.85-5.98-1.28-7.83c0,0-48.89,24.59-148.65,24.27
			C157.63,143.67,99.98,118.97,99.98,118.97z M53.5,127.53c-1.78,1.85-3.66,3.47-5.66,4.86c-1.99,1.39-3.99,2.35-5.98,2.89
			c-1.99,0.54-3.74,0.35-5.25-0.58c0.32-2.63,1.62-4.71,3.88-6.25c2.26-1.54,4.69-2.78,7.28-3.7c3.02-1.08,6.41-1.85,10.19-2.31
			C56.76,123.98,55.28,125.68,53.5,127.53z M64.12,112.67l0.13-0.19C64.25,112.58,64.2,112.63,64.12,112.67z"/>
		<path class="st50" d="M98.12,82.78c-1.78,2.37-3.37,5.2-4.77,8.49c-1.4,3.29-2.1,7.03-2.1,11.24c0,1.62,0.24,3.29,0.73,5.01
			c0.49,1.73,1.21,3.34,2.18,4.85c0.97,1.51,2.24,2.75,3.8,3.72c1.56,0.97,3.48,1.46,5.74,1.46c2.69,0,5.04-0.73,7.03-2.18
			c1.99-1.46,3.26-2.56,3.8-3.31c1.4,0.54,2.75,0.81,4.04,0.81c2.05,0,3.8-0.3,5.25-0.89c1.46-0.59,2.59-1.29,3.39-2.1
			c0.13-0.13,0.24-0.26,0.36-0.39c0.41,1,0.9,1.97,1.5,2.89c0.97,1.51,2.24,2.75,3.8,3.72c1.56,0.97,3.48,1.46,5.74,1.46
			c2.69,0,5.04-0.73,7.03-2.18c1.99-1.46,3.26-2.56,3.8-3.31c1.4,0.54,2.75,0.81,4.04,0.81c2.05,0,3.8-0.3,5.25-0.89
			c0.46-0.19,0.87-0.39,1.26-0.59c0.1,1.38,0.38,2.55,0.84,3.5c0.59,1.24,1.32,2.24,2.18,2.99s1.78,1.27,2.75,1.54
			c0.97,0.27,1.88,0.4,2.75,0.4c3.34,0,6.12-0.95,8.33-2.83c2.21-1.88,3.96-3.93,5.25-6.14c1.29-2.21,2.48-5.15,3.56-8.81
			l-0.32-0.32c-0.32-0.32-0.65-0.48-0.97-0.48l-0.32,0.16c-2.26,4.85-4.8,8.33-7.6,10.43c-2.8,2.1-5.12,3.15-6.95,3.15
			c-1.72,0-2.59-1.02-2.59-3.07c0-1.94,0.49-4.45,1.46-7.52c0.97-3.07,2.21-6.39,3.72-9.94c1.51-3.56,3.15-7.14,4.93-10.75
			c1.78-3.61,3.42-6.92,4.93-9.94c2.8-0.21,10.79-0.32,12.62-0.1c3.13,0.22,5.66,0.51,7.6,0.89c1.94,0.38,3.48,0.76,4.61,1.13
			c1.13,0.38,1.96,0.7,2.51,0.97c0.54,0.27,0.97,0.4,1.29,0.4c0.21,0,0.4-0.21,0.57-0.65c0.16-0.43,0.27-0.91,0.32-1.46
			c0.05-0.54,0.11-1.05,0.16-1.54c0.05-0.49,0.08-0.78,0.08-0.89c0-1.62-0.32-2.94-0.97-3.96c-0.65-1.02-1.35-1.86-2.1-2.51
			c-0.86-0.75-1.83-1.35-2.91-1.78c-0.86-0.21-2.53-0.51-5.01-0.89c-2.48-0.38-9.77,0.51-13.75,1.16c0.54-0.97,0.97-1.83,1.29-2.59
			c0.32-0.75,0.49-1.56,0.49-2.43c0-1.08-0.38-2.13-1.13-3.15c-0.75-1.02-1.62-1.91-2.59-2.67c-0.97-0.75-1.97-1.37-2.99-1.86
			c-1.03-0.49-1.75-0.73-2.18-0.73c-0.75,2.37-1.46,4.39-2.1,6.06c-0.65,1.67-1.35,3.45-2.1,5.33c-0.76,1.89-1.46,3.53-2.1,4.93
			c-2.91,0.75-5.31,1.37-7.19,1.86c-1.89,0.48-3.58,0.73-5.09,0.73c-2.91,0-4.37-1.08-4.37-3.23c0-1.29,0.32-2.15,0.97-2.59
			c0.65-0.43,1.24-0.65,1.78-0.65c0.43,0,0.73,0.08,0.89,0.24c0.16,0.16,0.35,0.24,0.57,0.24c0.32,0,0.49-0.16,0.49-0.49
			c0-0.21-0.21-0.48-0.65-0.81c-0.17-0.13-0.39-0.23-0.65-0.31c-0.84-0.25-1.76-0.04-2.5,0.43c-2.54,1.6-3.8,3.5-3.8,5.7
			c0,1.83,0.94,3.5,2.83,5.01c1.89,1.51,4.39,2.26,7.52,2.26c0.86,0,1.78-0.05,2.75-0.16c0.97-0.11,1.99-0.38,3.07-0.81
			c-1.19,2.8-2.37,5.77-3.56,8.89c-1.19,3.13-2.26,6.28-3.23,9.46c-0.97,3.18-1.78,6.22-2.42,9.14c-0.37,1.66-0.62,3.2-0.78,4.65
			c-0.58,0.34-1.17,0.65-1.81,0.93c-0.86,0.38-1.78,0.57-2.75,0.57c-0.86,0-1.51-0.11-1.94-0.32c1.72-2.16,3.42-4.98,5.09-8.49
			c1.67-3.5,2.51-7.2,2.51-11.08c0-0.54,0-1.05,0-1.54s-0.06-1-0.16-1.54c0-0.75-0.19-1.72-0.57-2.91c-0.38-1.18-0.92-2.32-1.62-3.4
			c-0.7-1.08-1.64-2.02-2.83-2.83c-1.19-0.81-2.64-1.21-4.37-1.21c-1.73,0-3.13,0.27-4.2,0.81c-1.08,0.54-2.05,1.13-2.91,1.78
			c-0.86-1.4-1.48-2.24-1.86-2.51c-0.38-0.27-0.67-0.4-0.89-0.4c-0.65,0.22-1.83,1-3.56,2.34c-1.73,1.35-3.48,3.21-5.25,5.58
			c-1.78,2.37-3.37,5.2-4.77,8.49c-1.4,3.29-2.1,7.03-2.1,11.24c0,1.19,0.13,2.41,0.4,3.65c-0.23,0.15-0.46,0.3-0.72,0.47
			c-0.75,0.49-1.56,0.92-2.42,1.29c-0.86,0.38-1.78,0.57-2.75,0.57c-0.86,0-1.51-0.11-1.94-0.32c1.72-2.16,3.42-4.98,5.09-8.49
			c1.67-3.5,2.51-7.2,2.51-11.08c0-0.54,0-1.05,0-1.54s-0.06-1-0.16-1.54c0-0.75-0.19-1.72-0.57-2.91c-0.38-1.18-0.92-2.32-1.62-3.4
			c-0.7-1.08-1.64-2.02-2.83-2.83c-1.19-0.81-2.64-1.21-4.37-1.21c-1.73,0-3.13,0.27-4.2,0.81c-1.08,0.54-2.05,1.13-2.91,1.78
			c-0.86-1.4-1.48-2.24-1.86-2.51c-0.38-0.27-0.67-0.4-0.89-0.4c-0.65,0.22-1.83,1-3.56,2.34C101.65,78.56,99.9,80.41,98.12,82.78z
			 M146.3,94.02c0.38-1.46,0.86-2.8,1.46-4.04c0.59-1.24,1.27-2.29,2.02-3.15c0.75-0.86,1.56-1.29,2.42-1.29
			c0.65,0.22,1.02,1.03,1.13,2.43c0.11,1.4,0.16,2.91,0.16,4.53c0,0.76-0.06,1.51-0.16,2.26c-0.11,0.76-0.27,1.46-0.48,2.1
			c-0.43,1.94-0.97,3.67-1.62,5.17c-0.65,1.51-1.4,2.86-2.26,4.04c-1.29-0.43-2.16-1.56-2.59-3.39c-0.43-1.83-0.65-3.34-0.65-4.53
			C145.73,96.85,145.92,95.48,146.3,94.02z M134.17,96.69c1.24-2.48,2.77-4.69,4.61-6.63c-0.11,0.65-0.19,1.32-0.24,2.02
			c-0.06,0.7-0.08,1.38-0.08,2.02c0,2.91,0.46,5.88,1.37,8.89c0.92,3.02,2.77,5.39,5.58,7.11c-1.51,1.4-2.8,2.32-3.88,2.75
			c-1.08,0.43-1.89,0.65-2.42,0.65c-2.16-0.21-3.83-1-5.01-2.34c-1.19-1.35-1.78-3.48-1.78-6.39S132.93,99.17,134.17,96.69z
			 M111.38,94.02c0.38-1.46,0.86-2.8,1.46-4.04c0.59-1.24,1.27-2.29,2.02-3.15c0.75-0.86,1.56-1.29,2.42-1.29
			c0.65,0.22,1.02,1.03,1.13,2.43c0.11,1.4,0.16,2.91,0.16,4.53c0,0.76-0.06,1.51-0.16,2.26c-0.11,0.76-0.27,1.46-0.48,2.1
			c-0.43,1.94-0.97,3.67-1.62,5.17c-0.65,1.51-1.4,2.86-2.26,4.04c-1.29-0.43-2.16-1.56-2.59-3.39c-0.43-1.83-0.65-3.34-0.65-4.53
			C110.81,96.85,111,95.48,111.38,94.02z M104.91,102.99c0.92,3.02,2.77,5.39,5.58,7.11c-1.51,1.4-2.8,2.32-3.88,2.75
			c-1.08,0.43-1.89,0.65-2.42,0.65c-2.16-0.21-3.83-1-5.01-2.34c-1.19-1.35-1.78-3.48-1.78-6.39s0.62-5.6,1.86-8.08
			c1.24-2.48,2.77-4.69,4.61-6.63c-0.11,0.65-0.19,1.32-0.24,2.02c-0.06,0.7-0.08,1.38-0.08,2.02
			C103.54,97.01,103.99,99.98,104.91,102.99z"/>
		<linearGradient id="SVGID_2_" gradientUnits="userSpaceOnUse" x1="194.1345" y1="72.6523" x2="278.005" y2="72.6523">
			<stop  offset="0" style="stop-color:#CE7329"/>
			<stop  offset="0.1292" style="stop-color:#EF9248"/>
			<stop  offset="0.3047" style="stop-color:#F6C27B"/>
			<stop  offset="0.3876" style="stop-color:#FAD895"/>
			<stop  offset="0.5449" style="stop-color:#E3C4AD"/>
			<stop  offset="0.7135" style="stop-color:#CEB1BD"/>
			<stop  offset="0.7843" style="stop-color:#BA94A8"/>
			<stop  offset="0.8755" style="stop-color:#A47591"/>
			<stop  offset="0.9507" style="stop-color:#976385"/>
			<stop  offset="1" style="stop-color:#935C81"/>
		</linearGradient>
		<path class="st6" d="M235.85,19.43c-20.11-1.43-35.19,9.28-36.49,10.46c-2.4,2.2-3.72,3.48-3.96,3.87
			c-0.24,0.39-0.48,0.84-0.72,1.35c-0.36,1.03-0.54,2.26-0.54,3.68c0,1.42,0.39,3.03,1.17,4.84c0.78,1.81,2.25,3.61,4.41,5.42
			c0.24,0,0.81-0.64,1.71-1.94c0.9-1.29,2.43-2.97,4.6-5.03c1.1-1.05,12.61-11.1,26.89-10.95c13.13,0.13,24.11,2.57,31.66,9.89
			c7.78,7.54,5.45,20.89,2.54,27.49c-2.04,4.26-4.57,8-7.57,11.23c-3,3.23-6.25,5.9-9.73,8.03c-3.49,2.13-7.12,3.71-10.9,4.74
			c-3.78,1.03-7.48,1.55-11.08,1.55c-0.84,0-1.62-0.03-2.34-0.1c-0.72-0.06-1.5-0.16-2.34-0.29c2.64-7.1,4.74-12.49,6.31-16.16
			c1.56-3.68,2.7-6.42,3.42-8.23c0.72-1.81,1.17-3,1.35-3.58c0.18-0.58,0.27-1.32,0.27-2.22c0-1.55-0.48-2.87-1.44-3.97
			c-0.96-1.1-2.04-2.03-3.24-2.81c-1.2-0.77-2.34-1.39-3.42-1.84c-1.08-0.45-1.74-0.74-1.98-0.87c0,0.77-0.15,1.74-0.45,2.9
			c-0.3,1.16-0.63,2.32-0.99,3.49l-1.26,4.06c-1.2,2.97-2.67,6.71-4.41,11.23c-1.74,4.52-3.45,9.61-5.14,15.29
			c-3.13-1.16-5.74-2.48-7.84-3.97c-2.1-1.48-3.78-2.84-5.05-4.07c-1.26-1.22-2.22-2.26-2.88-3.1c-0.66-0.84-1.05-1.26-1.17-1.26
			c-0.24,0-0.48,0.07-0.72,0.19c-0.24,0.13-0.36,0.32-0.36,0.58c0,0.26,0.06,0.45,0.18,0.58c0,0.13,0.06,0.19,0.18,0.19
			c0.84,1.68,1.8,3.19,2.88,4.55c1.08,1.36,2.58,2.84,4.51,4.45c1.92,1.62,4.38,3.13,7.39,4.55c0.24,0.13,0.51,0.26,0.81,0.39
			c0.3,0.13,0.63,0.26,0.99,0.39c-0.6,1.94-1.2,4.07-1.8,6.39c-0.6,2.32-1.14,4.55-1.62,6.68c-0.48,2.13-0.87,4.1-1.17,5.9
			c-0.3,1.81-0.45,3.23-0.45,4.26c0,1.81,0.36,3.22,1.08,4.26c0.72,1.03,1.5,1.84,2.34,2.42c0.84,0.58,1.65,1,2.43,1.26
			c0.78,0.26,1.29,0.39,1.53,0.39c0-2.07,0.12-3.87,0.36-5.42c0.24-1.55,0.48-2.9,0.72-4.07c0.36-1.29,0.72-2.45,1.08-3.48
			c0.72-1.81,1.59-4.07,2.61-6.78c1.02-2.71,2.13-5.55,3.33-8.52c3.36,0.65,6.55,0.97,9.55,0.97c4.33,0,8.74-0.74,13.25-2.23
			c4.51-1.48,8.83-3.71,12.97-6.68c4.14-2.97,10.41-7.15,18.55-23.91C283.24,50.7,272.01,22,235.85,19.43z"/>
		<linearGradient id="SVGID_3_" gradientUnits="userSpaceOnUse" x1="259.6941" y1="95.7988" x2="426.3816" y2="95.7988">
			<stop  offset="0" style="stop-color:#FFF4E2"/>
			<stop  offset="0.0168" style="stop-color:#D1CED2"/>
			<stop  offset="0.0347" style="stop-color:#A5ACC3"/>
			<stop  offset="0.0531" style="stop-color:#7D91B5"/>
			<stop  offset="0.0717" style="stop-color:#597CAA"/>
			<stop  offset="0.0905" style="stop-color:#3B6DA1"/>
			<stop  offset="0.1096" style="stop-color:#21639B"/>
			<stop  offset="0.1291" style="stop-color:#075E98"/>
			<stop  offset="0.15" style="stop-color:#005C97"/>
			<stop  offset="0.3" style="stop-color:#FFF4E2"/>
			<stop  offset="0.47" style="stop-color:#005C97"/>
			<stop  offset="0.64" style="stop-color:#C91A50"/>
			<stop  offset="0.7472" style="stop-color:#FFF4E2"/>
			<stop  offset="0.8595" style="stop-color:#005C97"/>
			<stop  offset="0.927" style="stop-color:#C91A50"/>
			<stop  offset="1" style="stop-color:#FFF4E2"/>
		</linearGradient>
		<path class="st7" d="M425.57,100.41c-0.22-0.11-0.43-0.16-0.65-0.16l-0.32,0.16c-2.16,4.96-4.37,8.54-6.63,10.75
			c-2.26,2.21-4.15,3.31-5.66,3.31c-0.86,0-1.43-0.4-1.7-1.21c-0.27-0.81-0.4-1.8-0.4-2.99c0-2.69,0.65-5.55,1.94-8.57
			c1.29-3.02,2.69-5.95,4.2-8.81c1.51-2.85,2.91-5.52,4.2-8c1.29-2.48,1.94-4.53,1.94-6.14c0-0.97-0.38-1.91-1.13-2.83
			c-0.76-0.91-1.59-1.75-2.51-2.51c-0.92-0.75-1.75-1.37-2.51-1.86c-0.75-0.48-1.19-0.73-1.29-0.73c-0.22,0.86-0.54,1.83-0.97,2.91
			c-0.43,1.08-0.92,2.1-1.46,3.07c-0.54,1.19-1.19,2.32-1.94,3.4h-4.53c-0.75,0-1.56-0.03-2.42-0.08c-0.86-0.05-1.64-0.13-2.34-0.24
			c-0.7-0.11-1.29-0.21-1.78-0.32c-0.49-0.11-0.73-0.27-0.73-0.48c0.21-0.21,0.38-0.4,0.48-0.57c0.11-0.16,0.32-0.62,0.65-1.37
			c0-0.11-0.67-0.32-2.02-0.65c-1.35-0.32-2.94-0.7-4.77-1.13c-0.54-0.21-1.03-0.32-1.46-0.32c-0.43,0-0.75,0-0.97,0
			c-0.86,0-1.4,0.3-1.62,0.89c-0.22,0.59-0.32,1.48-0.32,2.67c0,1.19,0.32,2.61,0.97,4.28c0.65,1.67,1.88,3.1,3.72,4.29
			c-0.65,3.13-1.59,6.5-2.83,10.1c-1.23,3.59-3.59,8.6-6.36,11.26c-0.88,0.79-2.01,1.69-3.42,2.73c-1.4,0.97-3.31,2.1-5.74,3.4
			c-2.43,1.29-4.83,1.94-7.2,1.94c-3.13,0-5.63-1.21-7.52-3.64c-1.89-2.43-2.83-5.15-2.83-8.17c0-1.94,0.32-3.88,0.97-5.82
			c0.54,0.54,1.4,1,2.59,1.37c1.18,0.38,2.64,0.57,4.37,0.57c2.48,0,4.85-0.46,7.11-1.37c2.26-0.91,4.23-2.16,5.9-3.72
			c1.67-1.56,2.99-3.37,3.96-5.42c0.97-2.05,1.46-4.2,1.46-6.47c0-2.26-0.95-4.37-2.83-6.31c-1.89-1.94-4.55-2.91-8-2.91
			c-2.8,0-5.5,0.81-8.08,2.42s-4.91,3.77-6.95,6.47c-2.05,2.7-3.67,5.74-4.85,9.14c-1.08,3.08-1.64,6.28-1.74,9.58
			c-0.44-0.08-0.89-0.17-1.33-0.29c-1.19-0.32-2.16-0.75-2.91-1.29c0.32-0.86,0.78-2.07,1.37-3.64c0.59-1.56,1.13-3.29,1.62-5.17
			c0.48-1.88,0.91-3.8,1.29-5.74c0.38-1.94,0.57-3.72,0.57-5.33c0-1.83-0.27-3.31-0.81-4.45c-0.54-1.13-1.56-1.7-3.07-1.7
			c-1.29,0-2.48,0.59-3.56,1.78c-1.08,1.19-2,2.61-2.75,4.28c-0.75,1.67-1.35,3.37-1.78,5.09c-0.43,1.73-0.65,3.07-0.65,4.04
			c0,2.16,0.32,4.12,0.97,5.9s1.56,3.21,2.75,4.29c-0.65,1.19-1.43,2.53-2.34,4.04c-0.92,1.51-1.97,2.91-3.15,4.2
			c-1.19,1.29-2.48,2.4-3.88,3.31c-1.4,0.92-2.91,1.37-4.53,1.37c-1.83,0-3.1-0.59-3.8-1.78c-0.7-1.18-1.05-2.75-1.05-4.69
			c0-2.37,0.35-4.71,1.05-7.03c0.7-2.32,1.56-4.55,2.59-6.71c1.02-2.15,2.13-4.2,3.31-6.14c1.18-1.94,2.26-3.66,3.23-5.17v-0.16
			c-1.29-1.08-2.42-1.88-3.4-2.43c-0.97-0.54-1.97-1.05-2.99-1.54c-1.03-0.48-1.86-0.73-2.51-0.73c-1.83,2.48-3.31,4.85-4.45,7.11
			s-2.18,5.01-3.15,8.25c-0.97,3.23-1.56,6.85-1.78,10.83c-1.83,4.53-3.8,7.71-5.9,9.54c-2.1,1.83-3.91,2.75-5.42,2.75
			c-1.29,0-2.13-0.46-2.51-1.38c-0.38-0.91-0.57-2.07-0.57-3.48c0-2.69,0.65-5.55,1.94-8.57c1.29-3.02,2.69-5.95,4.2-8.81
			c1.51-2.85,2.91-5.52,4.2-8c1.29-2.48,1.94-4.53,1.94-6.14c0-0.86-0.38-1.75-1.13-2.67c-0.76-0.92-1.59-1.75-2.51-2.51
			c-0.92-0.75-1.78-1.38-2.59-1.86c-0.81-0.49-1.27-0.73-1.38-0.73c-0.43,2.16-1.32,4.42-2.67,6.79c-1.35,2.37-2.72,5.01-4.12,7.92
			c-1.4,2.91-2.67,6.14-3.8,9.7c-1.13,3.56-1.7,7.6-1.7,12.13c0,0.26,0.01,0.51,0.02,0.77c-0.06,0.04-0.12,0.08-0.18,0.12
			c-0.75,0.49-1.56,0.92-2.42,1.29c-0.86,0.38-1.78,0.57-2.75,0.57c-0.86,0-1.51-0.11-1.94-0.32c1.72-2.16,3.42-4.98,5.09-8.49
			c1.67-3.5,2.51-7.2,2.51-11.08c0-0.54,0-1.05,0-1.54s-0.06-1-0.16-1.54c0-0.75-0.19-1.72-0.57-2.91c-0.38-1.18-0.92-2.32-1.62-3.4
			c-0.7-1.08-1.64-2.02-2.83-2.83c-1.19-0.81-2.64-1.21-4.37-1.21c-1.73,0-3.13,0.27-4.2,0.81c-1.08,0.54-2.05,1.13-2.91,1.78
			c-0.86-1.4-1.48-2.24-1.86-2.51c-0.38-0.27-0.67-0.4-0.89-0.4c-0.65,0.22-1.83,1-3.56,2.34c-1.73,1.35-3.48,3.21-5.25,5.58
			c-1.78,2.37-3.37,5.2-4.77,8.49c-1.4,3.29-2.1,7.03-2.1,11.24c0,1.62,0.24,3.29,0.73,5.01c0.49,1.73,1.21,3.34,2.18,4.85
			c0.97,1.51,2.24,2.75,3.8,3.72c1.56,0.97,3.48,1.46,5.74,1.46c2.69,0,5.04-0.73,7.03-2.18c1.99-1.46,3.26-2.56,3.8-3.31
			c1.4,0.54,2.75,0.81,4.04,0.81c2.05,0,3.8-0.3,5.25-0.89c1.11-0.45,2.02-0.96,2.76-1.54c0.45,1.65,1.17,3.04,2.17,4.13
			c1.83,2,3.77,2.99,5.82,2.99c1.62,0,3.13-0.38,4.53-1.13c1.4-0.75,2.67-1.72,3.8-2.91c1.13-1.18,2.15-2.42,3.07-3.72
			c0.92-1.29,1.7-2.53,2.34-3.72c0.75,4.31,2.29,7.33,4.61,9.05c2.32,1.73,5.09,2.59,8.33,2.59c2.26,0,4.31-0.59,6.14-1.78
			c1.83-1.19,3.48-2.64,4.93-4.37c1.46-1.72,2.69-3.58,3.72-5.58c1.02-1.99,1.8-3.74,2.34-5.25c1.18,0.54,2.32,0.89,3.4,1.05
			c0.46,0.07,0.89,0.12,1.31,0.15c0.04,1.52,0.27,3.22,0.71,5.1c0.49,2.05,1.32,3.96,2.51,5.74c1.19,1.78,2.75,3.26,4.69,4.45
			c1.94,1.18,4.31,1.78,7.11,1.78c3.77,0,7.09-0.81,9.94-2.42c2.85-1.62,5.2-3.4,7.03-5.34c1.59-1.67,3.04-3.55,4.33-5.64
			c0,0,0.01-0.01,0.01-0.01c0.92-1.43,3.95-6.07,5.03-8.5c1.08-2.43,2.64-5.74,4.69-9.94c0.43,0.11,0.86,0.16,1.29,0.16
			c0.43,0,0.91,0,1.46,0c1.18,0,2.32-0.05,3.4-0.16c1.08-0.11,2.21-0.27,3.39-0.49c-1.19,2.91-2.24,6.04-3.15,9.38
			c-0.92,3.34-1.37,6.58-1.37,9.7c0,3.88,0.89,6.82,2.67,8.81c1.78,2,3.69,2.99,5.74,2.99c2.37,0,4.5-0.91,6.39-2.75
			c1.88-1.83,3.5-3.85,4.85-6.06c1.35-2.21,2.37-4.28,3.07-6.22c0.7-1.94,1.05-3.02,1.05-3.23
			C426.38,100.95,426.11,100.73,425.57,100.41z M363.33,89.41c1.51-1.94,2.99-3.31,4.45-4.12s2.72-1.21,3.8-1.21
			c1.51,0,2.26,0.7,2.26,2.1c0,0.86-0.35,1.92-1.05,3.15c-0.7,1.24-1.62,2.4-2.75,3.48c-1.13,1.08-2.45,2-3.96,2.75
			c-1.51,0.75-3.07,1.13-4.69,1.13c-1.08,0-1.78-0.05-2.1-0.16C360.47,93.94,361.82,91.57,363.33,89.41z M275.05,114.63
			c-1.08,0.43-1.89,0.65-2.42,0.65c-2.16-0.21-3.83-1-5.01-2.34c-1.19-1.35-1.78-3.48-1.78-6.39s0.62-5.6,1.86-8.08
			c1.24-2.48,2.77-4.69,4.61-6.63c-0.11,0.65-0.19,1.32-0.24,2.02c-0.06,0.7-0.08,1.38-0.08,2.02c0,2.91,0.46,5.88,1.37,8.89
			c0.92,3.02,2.77,5.39,5.58,7.11C277.42,113.29,276.13,114.21,275.05,114.63z M286.86,96.53c-0.11,0.76-0.27,1.46-0.48,2.1
			c-0.43,1.94-0.97,3.67-1.62,5.17c-0.65,1.51-1.4,2.86-2.26,4.04c-1.29-0.43-2.16-1.56-2.59-3.39c-0.43-1.83-0.65-3.34-0.65-4.53
			c0-1.29,0.19-2.67,0.57-4.12c0.38-1.46,0.86-2.8,1.46-4.04c0.59-1.24,1.27-2.29,2.02-3.15c0.75-0.86,1.56-1.29,2.42-1.29
			c0.65,0.22,1.02,1.03,1.13,2.43c0.11,1.4,0.16,2.91,0.16,4.53C287.02,95.02,286.96,95.77,286.86,96.53z M345.54,95.15
			c-0.43,1.24-0.81,2.18-1.13,2.83c-0.11-0.21-0.19-0.35-0.24-0.4c-0.06-0.05-0.14-0.19-0.24-0.4c-0.86-1.62-1.29-3.5-1.29-5.66
			c0-0.65,0.11-1.59,0.32-2.83c0.21-1.24,0.54-2.43,0.97-3.56c0.43-1.13,0.91-2.13,1.46-2.99c0.54-0.86,1.13-1.29,1.78-1.29
			c0.86,0,1.29,0.81,1.29,2.42c0,0.97-0.16,2.16-0.49,3.56c-0.32,1.4-0.7,2.83-1.13,4.28C346.41,92.57,345.97,93.91,345.54,95.15z"
			/>
	</g>
	<g>
		<path class="st53" d="M99.98,118.97c-4.47-1.02-9.19-2.7-14.31-3.93c-5.12-1.23-10-2-14.63-2.32c1.08-2.16,2.24-4.28,3.48-6.37
			c1.24-2.08,2.56-4.43,3.96-7.06c2.26-4.32,4.53-9.34,6.79-15.05c2.26-5.71,4.5-11.53,6.71-17.48c2.21-5.94,4.26-11.73,6.14-17.36
			c1.88-5.63,3.58-10.69,5.09-15.17c0.32-1.08,0.54-2.04,0.65-2.89c0.11-0.85,0.16-1.66,0.16-2.43c0-1.85-0.43-3.47-1.29-4.86
			c-0.86-1.39-1.81-2.55-2.83-3.47c-1.03-0.93-2.02-1.66-2.99-2.2c-0.97-0.54-1.56-0.89-1.78-1.04c-1.51,6.48-3.37,14.16-5.58,23.04
			c-2.21,8.88-4.64,17.83-7.28,26.86c-2.64,9.03-5.5,17.59-8.57,25.7c-3.06,8.08-6.26,14.66-9.59,19.75
			c-0.05,0.02-0.11,0.04-0.19,0.04H63.6c-0.32,0-1.29,0.16-2.91,0.46c-1.62,0.31-3.56,0.85-5.82,1.62
			c-2.26,0.77-4.66,1.74-7.19,2.89c-2.53,1.16-4.9,2.58-7.11,4.28c-2.21,1.7-4.02,3.66-5.42,5.9c-1.4,2.24-2.1,4.75-2.1,7.52
			c0,1.23,0.4,2.39,1.21,3.47c0.81,1.08,2.78,1.62,5.9,1.62c1.29,0,2.83-0.27,4.61-0.81c1.78-0.54,3.75-1.5,5.9-2.89
			c2.16-1.39,4.47-3.36,6.95-5.9c2.48-2.55,5.17-5.83,8.08-9.84c0,0,3.29,0.69,4.04,0.69c1.4,0,3.29,0.15,5.66,0.46
			c2.37,0.31,5.33,0.92,8.81,2.08c81.64,27.27,110.98,31.94,196.9,40.01c1.29,0.12,117.72,12.07,157.13-20.28
			c4.11-4,8.28-8.91,8.3-16.33c0.01-4.44-0.85-5.98-1.28-7.83c0,0-48.89,24.59-148.65,24.27
			C157.63,143.67,99.98,118.97,99.98,118.97z M53.5,127.53c-1.78,1.85-3.66,3.47-5.66,4.86c-1.99,1.39-3.99,2.35-5.98,2.89
			c-1.99,0.54-3.74,0.35-5.25-0.58c0.32-2.63,1.62-4.71,3.88-6.25c2.26-1.54,4.69-2.78,7.28-3.7c3.02-1.08,6.41-1.85,10.19-2.31
			C56.76,123.98,55.28,125.68,53.5,127.53z M64.12,112.67l0.13-0.19C64.25,112.58,64.2,112.63,64.12,112.67z"/>
		<path class="st53" d="M98.12,82.78c-1.78,2.37-3.37,5.2-4.77,8.49c-1.4,3.29-2.1,7.03-2.1,11.24c0,1.62,0.24,3.29,0.73,5.01
			c0.49,1.73,1.21,3.34,2.18,4.85c0.97,1.51,2.24,2.75,3.8,3.72c1.56,0.97,3.48,1.46,5.74,1.46c2.69,0,5.04-0.73,7.03-2.18
			c1.99-1.46,3.26-2.56,3.8-3.31c1.4,0.54,2.75,0.81,4.04,0.81c2.05,0,3.8-0.3,5.25-0.89c1.46-0.59,2.59-1.29,3.39-2.1
			c0.13-0.13,0.24-0.26,0.36-0.39c0.41,1,0.9,1.97,1.5,2.89c0.97,1.51,2.24,2.75,3.8,3.72c1.56,0.97,3.48,1.46,5.74,1.46
			c2.69,0,5.04-0.73,7.03-2.18c1.99-1.46,3.26-2.56,3.8-3.31c1.4,0.54,2.75,0.81,4.04,0.81c2.05,0,3.8-0.3,5.25-0.89
			c0.46-0.19,0.87-0.39,1.26-0.59c0.1,1.38,0.38,2.55,0.84,3.5c0.59,1.24,1.32,2.24,2.18,2.99s1.78,1.27,2.75,1.54
			c0.97,0.27,1.88,0.4,2.75,0.4c3.34,0,6.12-0.95,8.33-2.83c2.21-1.88,3.96-3.93,5.25-6.14c1.29-2.21,2.48-5.15,3.56-8.81
			l-0.32-0.32c-0.32-0.32-0.65-0.48-0.97-0.48l-0.32,0.16c-2.26,4.85-4.8,8.33-7.6,10.43c-2.8,2.1-5.12,3.15-6.95,3.15
			c-1.72,0-2.59-1.02-2.59-3.07c0-1.94,0.49-4.45,1.46-7.52c0.97-3.07,2.21-6.39,3.72-9.94c1.51-3.56,3.15-7.14,4.93-10.75
			c1.78-3.61,3.42-6.92,4.93-9.94c2.8-0.21,10.79-0.32,12.62-0.1c3.13,0.22,5.66,0.51,7.6,0.89c1.94,0.38,3.48,0.76,4.61,1.13
			c1.13,0.38,1.96,0.7,2.51,0.97c0.54,0.27,0.97,0.4,1.29,0.4c0.21,0,0.4-0.21,0.57-0.65c0.16-0.43,0.27-0.91,0.32-1.46
			c0.05-0.54,0.11-1.05,0.16-1.54c0.05-0.49,0.08-0.78,0.08-0.89c0-1.62-0.32-2.94-0.97-3.96c-0.65-1.02-1.35-1.86-2.1-2.51
			c-0.86-0.75-1.83-1.35-2.91-1.78c-0.86-0.21-2.53-0.51-5.01-0.89c-2.48-0.38-9.77,0.51-13.75,1.16c0.54-0.97,0.97-1.83,1.29-2.59
			c0.32-0.75,0.49-1.56,0.49-2.43c0-1.08-0.38-2.13-1.13-3.15c-0.75-1.02-1.62-1.91-2.59-2.67c-0.97-0.75-1.97-1.37-2.99-1.86
			c-1.03-0.49-1.75-0.73-2.18-0.73c-0.75,2.37-1.46,4.39-2.1,6.06c-0.65,1.67-1.35,3.45-2.1,5.33c-0.76,1.89-1.46,3.53-2.1,4.93
			c-2.91,0.75-5.31,1.37-7.19,1.86c-1.89,0.48-3.58,0.73-5.09,0.73c-2.91,0-4.37-1.08-4.37-3.23c0-1.29,0.32-2.15,0.97-2.59
			c0.65-0.43,1.24-0.65,1.78-0.65c0.43,0,0.73,0.08,0.89,0.24c0.16,0.16,0.35,0.24,0.57,0.24c0.32,0,0.49-0.16,0.49-0.49
			c0-0.21-0.21-0.48-0.65-0.81c-0.17-0.13-0.39-0.23-0.65-0.31c-0.84-0.25-1.76-0.04-2.5,0.43c-2.54,1.6-3.8,3.5-3.8,5.7
			c0,1.83,0.94,3.5,2.83,5.01c1.89,1.51,4.39,2.26,7.52,2.26c0.86,0,1.78-0.05,2.75-0.16c0.97-0.11,1.99-0.38,3.07-0.81
			c-1.19,2.8-2.37,5.77-3.56,8.89c-1.19,3.13-2.26,6.28-3.23,9.46c-0.97,3.18-1.78,6.22-2.42,9.14c-0.37,1.66-0.62,3.2-0.78,4.65
			c-0.58,0.34-1.17,0.65-1.81,0.93c-0.86,0.38-1.78,0.57-2.75,0.57c-0.86,0-1.51-0.11-1.94-0.32c1.72-2.16,3.42-4.98,5.09-8.49
			c1.67-3.5,2.51-7.2,2.51-11.08c0-0.54,0-1.05,0-1.54s-0.06-1-0.16-1.54c0-0.75-0.19-1.72-0.57-2.91c-0.38-1.18-0.92-2.32-1.62-3.4
			c-0.7-1.08-1.64-2.02-2.83-2.83c-1.19-0.81-2.64-1.21-4.37-1.21c-1.73,0-3.13,0.27-4.2,0.81c-1.08,0.54-2.05,1.13-2.91,1.78
			c-0.86-1.4-1.48-2.24-1.86-2.51c-0.38-0.27-0.67-0.4-0.89-0.4c-0.65,0.22-1.83,1-3.56,2.34c-1.73,1.35-3.48,3.21-5.25,5.58
			c-1.78,2.37-3.37,5.2-4.77,8.49c-1.4,3.29-2.1,7.03-2.1,11.24c0,1.19,0.13,2.41,0.4,3.65c-0.23,0.15-0.46,0.3-0.72,0.47
			c-0.75,0.49-1.56,0.92-2.42,1.29c-0.86,0.38-1.78,0.57-2.75,0.57c-0.86,0-1.51-0.11-1.94-0.32c1.72-2.16,3.42-4.98,5.09-8.49
			c1.67-3.5,2.51-7.2,2.51-11.08c0-0.54,0-1.05,0-1.54s-0.06-1-0.16-1.54c0-0.75-0.19-1.72-0.57-2.91c-0.38-1.18-0.92-2.32-1.62-3.4
			c-0.7-1.08-1.64-2.02-2.83-2.83c-1.19-0.81-2.64-1.21-4.37-1.21c-1.73,0-3.13,0.27-4.2,0.81c-1.08,0.54-2.05,1.13-2.91,1.78
			c-0.86-1.4-1.48-2.24-1.86-2.51c-0.38-0.27-0.67-0.4-0.89-0.4c-0.65,0.22-1.83,1-3.56,2.34C101.65,78.56,99.9,80.41,98.12,82.78z
			 M146.3,94.02c0.38-1.46,0.86-2.8,1.46-4.04c0.59-1.24,1.27-2.29,2.02-3.15c0.75-0.86,1.56-1.29,2.42-1.29
			c0.65,0.22,1.02,1.03,1.13,2.43c0.11,1.4,0.16,2.91,0.16,4.53c0,0.76-0.06,1.51-0.16,2.26c-0.11,0.76-0.27,1.46-0.48,2.1
			c-0.43,1.94-0.97,3.67-1.62,5.17c-0.65,1.51-1.4,2.86-2.26,4.04c-1.29-0.43-2.16-1.56-2.59-3.39c-0.43-1.83-0.65-3.34-0.65-4.53
			C145.73,96.85,145.92,95.48,146.3,94.02z M134.17,96.69c1.24-2.48,2.77-4.69,4.61-6.63c-0.11,0.65-0.19,1.32-0.24,2.02
			c-0.06,0.7-0.08,1.38-0.08,2.02c0,2.91,0.46,5.88,1.37,8.89c0.92,3.02,2.77,5.39,5.58,7.11c-1.51,1.4-2.8,2.32-3.88,2.75
			c-1.08,0.43-1.89,0.65-2.42,0.65c-2.16-0.21-3.83-1-5.01-2.34c-1.19-1.35-1.78-3.48-1.78-6.39S132.93,99.17,134.17,96.69z
			 M111.38,94.02c0.38-1.46,0.86-2.8,1.46-4.04c0.59-1.24,1.27-2.29,2.02-3.15c0.75-0.86,1.56-1.29,2.42-1.29
			c0.65,0.22,1.02,1.03,1.13,2.43c0.11,1.4,0.16,2.91,0.16,4.53c0,0.76-0.06,1.51-0.16,2.26c-0.11,0.76-0.27,1.46-0.48,2.1
			c-0.43,1.94-0.97,3.67-1.62,5.17c-0.65,1.51-1.4,2.86-2.26,4.04c-1.29-0.43-2.16-1.56-2.59-3.39c-0.43-1.83-0.65-3.34-0.65-4.53
			C110.81,96.85,111,95.48,111.38,94.02z M104.91,102.99c0.92,3.02,2.77,5.39,5.58,7.11c-1.51,1.4-2.8,2.32-3.88,2.75
			c-1.08,0.43-1.89,0.65-2.42,0.65c-2.16-0.21-3.83-1-5.01-2.34c-1.19-1.35-1.78-3.48-1.78-6.39s0.62-5.6,1.86-8.08
			c1.24-2.48,2.77-4.69,4.61-6.63c-0.11,0.65-0.19,1.32-0.24,2.02c-0.06,0.7-0.08,1.38-0.08,2.02
			C103.54,97.01,103.99,99.98,104.91,102.99z"/>
		<path class="st53" d="M235.85,19.43c-20.11-1.43-35.19,9.28-36.49,10.46c-2.4,2.2-3.72,3.48-3.96,3.87
			c-0.24,0.39-0.48,0.84-0.72,1.35c-0.36,1.03-0.54,2.26-0.54,3.68c0,1.42,0.39,3.03,1.17,4.84c0.78,1.81,2.25,3.61,4.41,5.42
			c0.24,0,0.81-0.64,1.71-1.94c0.9-1.29,2.43-2.97,4.6-5.03c1.1-1.05,12.61-11.1,26.89-10.95c13.13,0.13,24.11,2.57,31.66,9.89
			c7.78,7.54,5.45,20.89,2.54,27.49c-2.04,4.26-4.57,8-7.57,11.23c-3,3.23-6.25,5.9-9.73,8.03c-3.49,2.13-7.12,3.71-10.9,4.74
			c-3.78,1.03-7.48,1.55-11.08,1.55c-0.84,0-1.62-0.03-2.34-0.1c-0.72-0.06-1.5-0.16-2.34-0.29c2.64-7.1,4.74-12.49,6.31-16.16
			c1.56-3.68,2.7-6.42,3.42-8.23c0.72-1.81,1.17-3,1.35-3.58c0.18-0.58,0.27-1.32,0.27-2.22c0-1.55-0.48-2.87-1.44-3.97
			c-0.96-1.1-2.04-2.03-3.24-2.81c-1.2-0.77-2.34-1.39-3.42-1.84c-1.08-0.45-1.74-0.74-1.98-0.87c0,0.77-0.15,1.74-0.45,2.9
			c-0.3,1.16-0.63,2.32-0.99,3.49l-1.26,4.06c-1.2,2.97-2.67,6.71-4.41,11.23c-1.74,4.52-3.45,9.61-5.14,15.29
			c-3.13-1.16-5.74-2.48-7.84-3.97c-2.1-1.48-3.78-2.84-5.05-4.07c-1.26-1.22-2.22-2.26-2.88-3.1c-0.66-0.84-1.05-1.26-1.17-1.26
			c-0.24,0-0.48,0.07-0.72,0.19c-0.24,0.13-0.36,0.32-0.36,0.58c0,0.26,0.06,0.45,0.18,0.58c0,0.13,0.06,0.19,0.18,0.19
			c0.84,1.68,1.8,3.19,2.88,4.55c1.08,1.36,2.58,2.84,4.51,4.45c1.92,1.62,4.38,3.13,7.39,4.55c0.24,0.13,0.51,0.26,0.81,0.39
			c0.3,0.13,0.63,0.26,0.99,0.39c-0.6,1.94-1.2,4.07-1.8,6.39c-0.6,2.32-1.14,4.55-1.62,6.68c-0.48,2.13-0.87,4.1-1.17,5.9
			c-0.3,1.81-0.45,3.23-0.45,4.26c0,1.81,0.36,3.22,1.08,4.26c0.72,1.03,1.5,1.84,2.34,2.42c0.84,0.58,1.65,1,2.43,1.26
			c0.78,0.26,1.29,0.39,1.53,0.39c0-2.07,0.12-3.87,0.36-5.42c0.24-1.55,0.48-2.9,0.72-4.07c0.36-1.29,0.72-2.45,1.08-3.48
			c0.72-1.81,1.59-4.07,2.61-6.78c1.02-2.71,2.13-5.55,3.33-8.52c3.36,0.65,6.55,0.97,9.55,0.97c4.33,0,8.74-0.74,13.25-2.23
			c4.51-1.48,8.83-3.71,12.97-6.68c4.14-2.97,10.41-7.15,18.55-23.91C283.24,50.7,272.01,22,235.85,19.43z"/>
		<path class="st53" d="M425.57,100.41c-0.22-0.11-0.43-0.16-0.65-0.16l-0.32,0.16c-2.16,4.96-4.37,8.54-6.63,10.75
			c-2.26,2.21-4.15,3.31-5.66,3.31c-0.86,0-1.43-0.4-1.7-1.21c-0.27-0.81-0.4-1.8-0.4-2.99c0-2.69,0.65-5.55,1.94-8.57
			c1.29-3.02,2.69-5.95,4.2-8.81c1.51-2.85,2.91-5.52,4.2-8c1.29-2.48,1.94-4.53,1.94-6.14c0-0.97-0.38-1.91-1.13-2.83
			c-0.76-0.91-1.59-1.75-2.51-2.51c-0.92-0.75-1.75-1.37-2.51-1.86c-0.75-0.48-1.19-0.73-1.29-0.73c-0.22,0.86-0.54,1.83-0.97,2.91
			c-0.43,1.08-0.92,2.1-1.46,3.07c-0.54,1.19-1.19,2.32-1.94,3.4h-4.53c-0.75,0-1.56-0.03-2.42-0.08c-0.86-0.05-1.64-0.13-2.34-0.24
			c-0.7-0.11-1.29-0.21-1.78-0.32c-0.49-0.11-0.73-0.27-0.73-0.48c0.21-0.21,0.38-0.4,0.48-0.57c0.11-0.16,0.32-0.62,0.65-1.37
			c0-0.11-0.67-0.32-2.02-0.65c-1.35-0.32-2.94-0.7-4.77-1.13c-0.54-0.21-1.03-0.32-1.46-0.32c-0.43,0-0.75,0-0.97,0
			c-0.86,0-1.4,0.3-1.62,0.89c-0.22,0.59-0.32,1.48-0.32,2.67c0,1.19,0.32,2.61,0.97,4.28c0.65,1.67,1.88,3.1,3.72,4.29
			c-0.65,3.13-1.59,6.5-2.83,10.1c-1.23,3.59-3.59,8.6-6.36,11.26c-0.88,0.79-2.01,1.69-3.42,2.73c-1.4,0.97-3.31,2.1-5.74,3.4
			c-2.43,1.29-4.83,1.94-7.2,1.94c-3.13,0-5.63-1.21-7.52-3.64c-1.89-2.43-2.83-5.15-2.83-8.17c0-1.94,0.32-3.88,0.97-5.82
			c0.54,0.54,1.4,1,2.59,1.37c1.18,0.38,2.64,0.57,4.37,0.57c2.48,0,4.85-0.46,7.11-1.37c2.26-0.91,4.23-2.16,5.9-3.72
			c1.67-1.56,2.99-3.37,3.96-5.42c0.97-2.05,1.46-4.2,1.46-6.47c0-2.26-0.95-4.37-2.83-6.31c-1.89-1.94-4.55-2.91-8-2.91
			c-2.8,0-5.5,0.81-8.08,2.42s-4.91,3.77-6.95,6.47c-2.05,2.7-3.67,5.74-4.85,9.14c-1.08,3.08-1.64,6.28-1.74,9.58
			c-0.44-0.08-0.89-0.17-1.33-0.29c-1.19-0.32-2.16-0.75-2.91-1.29c0.32-0.86,0.78-2.07,1.37-3.64c0.59-1.56,1.13-3.29,1.62-5.17
			c0.48-1.88,0.91-3.8,1.29-5.74c0.38-1.94,0.57-3.72,0.57-5.33c0-1.83-0.27-3.31-0.81-4.45c-0.54-1.13-1.56-1.7-3.07-1.7
			c-1.29,0-2.48,0.59-3.56,1.78c-1.08,1.19-2,2.61-2.75,4.28c-0.75,1.67-1.35,3.37-1.78,5.09c-0.43,1.73-0.65,3.07-0.65,4.04
			c0,2.16,0.32,4.12,0.97,5.9s1.56,3.21,2.75,4.29c-0.65,1.19-1.43,2.53-2.34,4.04c-0.92,1.51-1.97,2.91-3.15,4.2
			c-1.19,1.29-2.48,2.4-3.88,3.31c-1.4,0.92-2.91,1.37-4.53,1.37c-1.83,0-3.1-0.59-3.8-1.78c-0.7-1.18-1.05-2.75-1.05-4.69
			c0-2.37,0.35-4.71,1.05-7.03c0.7-2.32,1.56-4.55,2.59-6.71c1.02-2.15,2.13-4.2,3.31-6.14c1.18-1.94,2.26-3.66,3.23-5.17v-0.16
			c-1.29-1.08-2.42-1.88-3.4-2.43c-0.97-0.54-1.97-1.05-2.99-1.54c-1.03-0.48-1.86-0.73-2.51-0.73c-1.83,2.48-3.31,4.85-4.45,7.11
			s-2.18,5.01-3.15,8.25c-0.97,3.23-1.56,6.85-1.78,10.83c-1.83,4.53-3.8,7.71-5.9,9.54c-2.1,1.83-3.91,2.75-5.42,2.75
			c-1.29,0-2.13-0.46-2.51-1.38c-0.38-0.91-0.57-2.07-0.57-3.48c0-2.69,0.65-5.55,1.94-8.57c1.29-3.02,2.69-5.95,4.2-8.81
			c1.51-2.85,2.91-5.52,4.2-8c1.29-2.48,1.94-4.53,1.94-6.14c0-0.86-0.38-1.75-1.13-2.67c-0.76-0.92-1.59-1.75-2.51-2.51
			c-0.92-0.75-1.78-1.38-2.59-1.86c-0.81-0.49-1.27-0.73-1.38-0.73c-0.43,2.16-1.32,4.42-2.67,6.79c-1.35,2.37-2.72,5.01-4.12,7.92
			c-1.4,2.91-2.67,6.14-3.8,9.7c-1.13,3.56-1.7,7.6-1.7,12.13c0,0.26,0.01,0.51,0.02,0.77c-0.06,0.04-0.12,0.08-0.18,0.12
			c-0.75,0.49-1.56,0.92-2.42,1.29c-0.86,0.38-1.78,0.57-2.75,0.57c-0.86,0-1.51-0.11-1.94-0.32c1.72-2.16,3.42-4.98,5.09-8.49
			c1.67-3.5,2.51-7.2,2.51-11.08c0-0.54,0-1.05,0-1.54s-0.06-1-0.16-1.54c0-0.75-0.19-1.72-0.57-2.91c-0.38-1.18-0.92-2.32-1.62-3.4
			c-0.7-1.08-1.64-2.02-2.83-2.83c-1.19-0.81-2.64-1.21-4.37-1.21c-1.73,0-3.13,0.27-4.2,0.81c-1.08,0.54-2.05,1.13-2.91,1.78
			c-0.86-1.4-1.48-2.24-1.86-2.51c-0.38-0.27-0.67-0.4-0.89-0.4c-0.65,0.22-1.83,1-3.56,2.34c-1.73,1.35-3.48,3.21-5.25,5.58
			c-1.78,2.37-3.37,5.2-4.77,8.49c-1.4,3.29-2.1,7.03-2.1,11.24c0,1.62,0.24,3.29,0.73,5.01c0.49,1.73,1.21,3.34,2.18,4.85
			c0.97,1.51,2.24,2.75,3.8,3.72c1.56,0.97,3.48,1.46,5.74,1.46c2.69,0,5.04-0.73,7.03-2.18c1.99-1.46,3.26-2.56,3.8-3.31
			c1.4,0.54,2.75,0.81,4.04,0.81c2.05,0,3.8-0.3,5.25-0.89c1.11-0.45,2.02-0.96,2.76-1.54c0.45,1.65,1.17,3.04,2.17,4.13
			c1.83,2,3.77,2.99,5.82,2.99c1.62,0,3.13-0.38,4.53-1.13c1.4-0.75,2.67-1.72,3.8-2.91c1.13-1.18,2.15-2.42,3.07-3.72
			c0.92-1.29,1.7-2.53,2.34-3.72c0.75,4.31,2.29,7.33,4.61,9.05c2.32,1.73,5.09,2.59,8.33,2.59c2.26,0,4.31-0.59,6.14-1.78
			c1.83-1.19,3.48-2.64,4.93-4.37c1.46-1.72,2.69-3.58,3.72-5.58c1.02-1.99,1.8-3.74,2.34-5.25c1.18,0.54,2.32,0.89,3.4,1.05
			c0.46,0.07,0.89,0.12,1.31,0.15c0.04,1.52,0.27,3.22,0.71,5.1c0.49,2.05,1.32,3.96,2.51,5.74c1.19,1.78,2.75,3.26,4.69,4.45
			c1.94,1.18,4.31,1.78,7.11,1.78c3.77,0,7.09-0.81,9.94-2.42c2.85-1.62,5.2-3.4,7.03-5.34c1.59-1.67,3.04-3.55,4.33-5.64
			c0,0,0.01-0.01,0.01-0.01c0.92-1.43,3.95-6.07,5.03-8.5c1.08-2.43,2.64-5.74,4.69-9.94c0.43,0.11,0.86,0.16,1.29,0.16
			c0.43,0,0.91,0,1.46,0c1.18,0,2.32-0.05,3.4-0.16c1.08-0.11,2.21-0.27,3.39-0.49c-1.19,2.91-2.24,6.04-3.15,9.38
			c-0.92,3.34-1.37,6.58-1.37,9.7c0,3.88,0.89,6.82,2.67,8.81c1.78,2,3.69,2.99,5.74,2.99c2.37,0,4.5-0.91,6.39-2.75
			c1.88-1.83,3.5-3.85,4.85-6.06c1.35-2.21,2.37-4.28,3.07-6.22c0.7-1.94,1.05-3.02,1.05-3.23
			C426.38,100.95,426.11,100.73,425.57,100.41z M363.33,89.41c1.51-1.94,2.99-3.31,4.45-4.12s2.72-1.21,3.8-1.21
			c1.51,0,2.26,0.7,2.26,2.1c0,0.86-0.35,1.92-1.05,3.15c-0.7,1.24-1.62,2.4-2.75,3.48c-1.13,1.08-2.45,2-3.96,2.75
			c-1.51,0.75-3.07,1.13-4.69,1.13c-1.08,0-1.78-0.05-2.1-0.16C360.47,93.94,361.82,91.57,363.33,89.41z M275.05,114.63
			c-1.08,0.43-1.89,0.65-2.42,0.65c-2.16-0.21-3.83-1-5.01-2.34c-1.19-1.35-1.78-3.48-1.78-6.39s0.62-5.6,1.86-8.08
			c1.24-2.48,2.77-4.69,4.61-6.63c-0.11,0.65-0.19,1.32-0.24,2.02c-0.06,0.7-0.08,1.38-0.08,2.02c0,2.91,0.46,5.88,1.37,8.89
			c0.92,3.02,2.77,5.39,5.58,7.11C277.42,113.29,276.13,114.21,275.05,114.63z M286.86,96.53c-0.11,0.76-0.27,1.46-0.48,2.1
			c-0.43,1.94-0.97,3.67-1.62,5.17c-0.65,1.51-1.4,2.86-2.26,4.04c-1.29-0.43-2.16-1.56-2.59-3.39c-0.43-1.83-0.65-3.34-0.65-4.53
			c0-1.29,0.19-2.67,0.57-4.12c0.38-1.46,0.86-2.8,1.46-4.04c0.59-1.24,1.27-2.29,2.02-3.15c0.75-0.86,1.56-1.29,2.42-1.29
			c0.65,0.22,1.02,1.03,1.13,2.43c0.11,1.4,0.16,2.91,0.16,4.53C287.02,95.02,286.96,95.77,286.86,96.53z M345.54,95.15
			c-0.43,1.24-0.81,2.18-1.13,2.83c-0.11-0.21-0.19-0.35-0.24-0.4c-0.06-0.05-0.14-0.19-0.24-0.4c-0.86-1.62-1.29-3.5-1.29-5.66
			c0-0.65,0.11-1.59,0.32-2.83c0.21-1.24,0.54-2.43,0.97-3.56c0.43-1.13,0.91-2.13,1.46-2.99c0.54-0.86,1.13-1.29,1.78-1.29
			c0.86,0,1.29,0.81,1.29,2.42c0,0.97-0.16,2.16-0.49,3.56c-0.32,1.4-0.7,2.83-1.13,4.28C346.41,92.57,345.97,93.91,345.54,95.15z"
			/>
	</g>
	<g>
		<linearGradient id="SVGID_4_" gradientUnits="userSpaceOnUse" x1="33.0441" y1="91.9439" x2="446.5411" y2="91.9439">
			<stop  offset="0" style="stop-color:#E9A700"/>
			<stop  offset="0.09" style="stop-color:#EAA900"/>
			<stop  offset="0.1749" style="stop-color:#EBAE12"/>
			<stop  offset="0.2578" style="stop-color:#EEB62F"/>
			<stop  offset="0.3394" style="stop-color:#F1C24F"/>
			<stop  offset="0.4197" style="stop-color:#F4D174"/>
			<stop  offset="0.4987" style="stop-color:#F8E39E"/>
			<stop  offset="0.5" style="stop-color:#F8E39F"/>
			<stop  offset="0.5727" style="stop-color:#F8DD92"/>
			<stop  offset="0.7056" style="stop-color:#F8CA6F"/>
			<stop  offset="0.8826" style="stop-color:#F6AB34"/>
			<stop  offset="1" style="stop-color:#F39200"/>
		</linearGradient>
		<path class="st8" d="M99.98,118.97c-4.47-1.02-9.19-2.7-14.31-3.93c-5.12-1.23-10-2-14.63-2.32c1.08-2.16,2.24-4.28,3.48-6.37
			c1.24-2.08,2.56-4.43,3.96-7.06c2.26-4.32,4.53-9.34,6.79-15.05c2.26-5.71,4.5-11.53,6.71-17.48c2.21-5.94,4.26-11.73,6.14-17.36
			c1.88-5.63,3.58-10.69,5.09-15.17c0.32-1.08,0.54-2.04,0.65-2.89c0.11-0.85,0.16-1.66,0.16-2.43c0-1.85-0.43-3.47-1.29-4.86
			c-0.86-1.39-1.81-2.55-2.83-3.47c-1.03-0.93-2.02-1.66-2.99-2.2c-0.97-0.54-1.56-0.89-1.78-1.04c-1.51,6.48-3.37,14.16-5.58,23.04
			c-2.21,8.88-4.64,17.83-7.28,26.86c-2.64,9.03-5.5,17.59-8.57,25.7c-3.06,8.08-6.26,14.66-9.59,19.75
			c-0.05,0.02-0.11,0.04-0.19,0.04H63.6c-0.32,0-1.29,0.16-2.91,0.46c-1.62,0.31-3.56,0.85-5.82,1.62
			c-2.26,0.77-4.66,1.74-7.19,2.89c-2.53,1.16-4.9,2.58-7.11,4.28c-2.21,1.7-4.02,3.66-5.42,5.9c-1.4,2.24-2.1,4.75-2.1,7.52
			c0,1.23,0.4,2.39,1.21,3.47c0.81,1.08,2.78,1.62,5.9,1.62c1.29,0,2.83-0.27,4.61-0.81c1.78-0.54,3.75-1.5,5.9-2.89
			c2.16-1.39,4.47-3.36,6.95-5.9c2.48-2.55,5.17-5.83,8.08-9.84c0,0,3.29,0.69,4.04,0.69c1.4,0,3.29,0.15,5.66,0.46
			c2.37,0.31,5.33,0.92,8.81,2.08c81.64,27.27,110.98,31.94,196.9,40.01c1.29,0.12,117.72,12.07,157.13-20.28
			c4.11-4,8.28-8.91,8.3-16.33c0.01-4.44-0.85-5.98-1.28-7.83c0,0-48.89,24.59-148.65,24.27
			C157.63,143.67,99.98,118.97,99.98,118.97z M53.5,127.53c-1.78,1.85-3.66,3.47-5.66,4.86c-1.99,1.39-3.99,2.35-5.98,2.89
			c-1.99,0.54-3.74,0.35-5.25-0.58c0.32-2.63,1.62-4.71,3.88-6.25c2.26-1.54,4.69-2.78,7.28-3.7c3.02-1.08,6.41-1.85,10.19-2.31
			C56.76,123.98,55.28,125.68,53.5,127.53z M64.12,112.67l0.13-0.19C64.25,112.58,64.2,112.63,64.12,112.67z"/>
		<linearGradient id="SVGID_5_" gradientUnits="userSpaceOnUse" x1="33.0441" y1="91.9439" x2="446.5411" y2="91.9439">
			<stop  offset="0" style="stop-color:#E9A700"/>
			<stop  offset="0.09" style="stop-color:#EAA900"/>
			<stop  offset="0.1749" style="stop-color:#EBAE12"/>
			<stop  offset="0.2578" style="stop-color:#EEB62F"/>
			<stop  offset="0.3394" style="stop-color:#F1C24F"/>
			<stop  offset="0.4197" style="stop-color:#F4D174"/>
			<stop  offset="0.4987" style="stop-color:#F8E39E"/>
			<stop  offset="0.5" style="stop-color:#F8E39F"/>
			<stop  offset="0.5727" style="stop-color:#F8DD92"/>
			<stop  offset="0.7056" style="stop-color:#F8CA6F"/>
			<stop  offset="0.8826" style="stop-color:#F6AB34"/>
			<stop  offset="1" style="stop-color:#F39200"/>
		</linearGradient>
		<path class="st9" d="M98.12,82.78c-1.78,2.37-3.37,5.2-4.77,8.49c-1.4,3.29-2.1,7.03-2.1,11.24c0,1.62,0.24,3.29,0.73,5.01
			c0.49,1.73,1.21,3.34,2.18,4.85c0.97,1.51,2.24,2.75,3.8,3.72c1.56,0.97,3.48,1.46,5.74,1.46c2.69,0,5.04-0.73,7.03-2.18
			c1.99-1.46,3.26-2.56,3.8-3.31c1.4,0.54,2.75,0.81,4.04,0.81c2.05,0,3.8-0.3,5.25-0.89c1.46-0.59,2.59-1.29,3.39-2.1
			c0.13-0.13,0.24-0.26,0.36-0.39c0.41,1,0.9,1.97,1.5,2.89c0.97,1.51,2.24,2.75,3.8,3.72c1.56,0.97,3.48,1.46,5.74,1.46
			c2.69,0,5.04-0.73,7.03-2.18c1.99-1.46,3.26-2.56,3.8-3.31c1.4,0.54,2.75,0.81,4.04,0.81c2.05,0,3.8-0.3,5.25-0.89
			c0.46-0.19,0.87-0.39,1.26-0.59c0.1,1.38,0.38,2.55,0.84,3.5c0.59,1.24,1.32,2.24,2.18,2.99s1.78,1.27,2.75,1.54
			c0.97,0.27,1.88,0.4,2.75,0.4c3.34,0,6.12-0.95,8.33-2.83c2.21-1.88,3.96-3.93,5.25-6.14c1.29-2.21,2.48-5.15,3.56-8.81
			l-0.32-0.32c-0.32-0.32-0.65-0.48-0.97-0.48l-0.32,0.16c-2.26,4.85-4.8,8.33-7.6,10.43c-2.8,2.1-5.12,3.15-6.95,3.15
			c-1.72,0-2.59-1.02-2.59-3.07c0-1.94,0.49-4.45,1.46-7.52c0.97-3.07,2.21-6.39,3.72-9.94c1.51-3.56,3.15-7.14,4.93-10.75
			c1.78-3.61,3.42-6.92,4.93-9.94c2.8-0.21,10.79-0.32,12.62-0.1c3.13,0.22,5.66,0.51,7.6,0.89c1.94,0.38,3.48,0.76,4.61,1.13
			c1.13,0.38,1.96,0.7,2.51,0.97c0.54,0.27,0.97,0.4,1.29,0.4c0.21,0,0.4-0.21,0.57-0.65c0.16-0.43,0.27-0.91,0.32-1.46
			c0.05-0.54,0.11-1.05,0.16-1.54c0.05-0.49,0.08-0.78,0.08-0.89c0-1.62-0.32-2.94-0.97-3.96c-0.65-1.02-1.35-1.86-2.1-2.51
			c-0.86-0.75-1.83-1.35-2.91-1.78c-0.86-0.21-2.53-0.51-5.01-0.89c-2.48-0.38-9.77,0.51-13.75,1.16c0.54-0.97,0.97-1.83,1.29-2.59
			c0.32-0.75,0.49-1.56,0.49-2.43c0-1.08-0.38-2.13-1.13-3.15c-0.75-1.02-1.62-1.91-2.59-2.67c-0.97-0.75-1.97-1.37-2.99-1.86
			c-1.03-0.49-1.75-0.73-2.18-0.73c-0.75,2.37-1.46,4.39-2.1,6.06c-0.65,1.67-1.35,3.45-2.1,5.33c-0.76,1.89-1.46,3.53-2.1,4.93
			c-2.91,0.75-5.31,1.37-7.19,1.86c-1.89,0.48-3.58,0.73-5.09,0.73c-2.91,0-4.37-1.08-4.37-3.23c0-1.29,0.32-2.15,0.97-2.59
			c0.65-0.43,1.24-0.65,1.78-0.65c0.43,0,0.73,0.08,0.89,0.24c0.16,0.16,0.35,0.24,0.57,0.24c0.32,0,0.49-0.16,0.49-0.49
			c0-0.21-0.21-0.48-0.65-0.81c-0.17-0.13-0.39-0.23-0.65-0.31c-0.84-0.25-1.76-0.04-2.5,0.43c-2.54,1.6-3.8,3.5-3.8,5.7
			c0,1.83,0.94,3.5,2.83,5.01c1.89,1.51,4.39,2.26,7.52,2.26c0.86,0,1.78-0.05,2.75-0.16c0.97-0.11,1.99-0.38,3.07-0.81
			c-1.19,2.8-2.37,5.77-3.56,8.89c-1.19,3.13-2.26,6.28-3.23,9.46c-0.97,3.18-1.78,6.22-2.42,9.14c-0.37,1.66-0.62,3.2-0.78,4.65
			c-0.58,0.34-1.17,0.65-1.81,0.93c-0.86,0.38-1.78,0.57-2.75,0.57c-0.86,0-1.51-0.11-1.94-0.32c1.72-2.16,3.42-4.98,5.09-8.49
			c1.67-3.5,2.51-7.2,2.51-11.08c0-0.54,0-1.05,0-1.54s-0.06-1-0.16-1.54c0-0.75-0.19-1.72-0.57-2.91c-0.38-1.18-0.92-2.32-1.62-3.4
			c-0.7-1.08-1.64-2.02-2.83-2.83c-1.19-0.81-2.64-1.21-4.37-1.21c-1.73,0-3.13,0.27-4.2,0.81c-1.08,0.54-2.05,1.13-2.91,1.78
			c-0.86-1.4-1.48-2.24-1.86-2.51c-0.38-0.27-0.67-0.4-0.89-0.4c-0.65,0.22-1.83,1-3.56,2.34c-1.73,1.35-3.48,3.21-5.25,5.58
			c-1.78,2.37-3.37,5.2-4.77,8.49c-1.4,3.29-2.1,7.03-2.1,11.24c0,1.19,0.13,2.41,0.4,3.65c-0.23,0.15-0.46,0.3-0.72,0.47
			c-0.75,0.49-1.56,0.92-2.42,1.29c-0.86,0.38-1.78,0.57-2.75,0.57c-0.86,0-1.51-0.11-1.94-0.32c1.72-2.16,3.42-4.98,5.09-8.49
			c1.67-3.5,2.51-7.2,2.51-11.08c0-0.54,0-1.05,0-1.54s-0.06-1-0.16-1.54c0-0.75-0.19-1.72-0.57-2.91c-0.38-1.18-0.92-2.32-1.62-3.4
			c-0.7-1.08-1.64-2.02-2.83-2.83c-1.19-0.81-2.64-1.21-4.37-1.21c-1.73,0-3.13,0.27-4.2,0.81c-1.08,0.54-2.05,1.13-2.91,1.78
			c-0.86-1.4-1.48-2.24-1.86-2.51c-0.38-0.27-0.67-0.4-0.89-0.4c-0.65,0.22-1.83,1-3.56,2.34C101.65,78.56,99.9,80.41,98.12,82.78z
			 M146.3,94.02c0.38-1.46,0.86-2.8,1.46-4.04c0.59-1.24,1.27-2.29,2.02-3.15c0.75-0.86,1.56-1.29,2.42-1.29
			c0.65,0.22,1.02,1.03,1.13,2.43c0.11,1.4,0.16,2.91,0.16,4.53c0,0.76-0.06,1.51-0.16,2.26c-0.11,0.76-0.27,1.46-0.48,2.1
			c-0.43,1.94-0.97,3.67-1.62,5.17c-0.65,1.51-1.4,2.86-2.26,4.04c-1.29-0.43-2.16-1.56-2.59-3.39c-0.43-1.83-0.65-3.34-0.65-4.53
			C145.73,96.85,145.92,95.48,146.3,94.02z M134.17,96.69c1.24-2.48,2.77-4.69,4.61-6.63c-0.11,0.65-0.19,1.32-0.24,2.02
			c-0.06,0.7-0.08,1.38-0.08,2.02c0,2.91,0.46,5.88,1.37,8.89c0.92,3.02,2.77,5.39,5.58,7.11c-1.51,1.4-2.8,2.32-3.88,2.75
			c-1.08,0.43-1.89,0.65-2.42,0.65c-2.16-0.21-3.83-1-5.01-2.34c-1.19-1.35-1.78-3.48-1.78-6.39S132.93,99.17,134.17,96.69z
			 M111.38,94.02c0.38-1.46,0.86-2.8,1.46-4.04c0.59-1.24,1.27-2.29,2.02-3.15c0.75-0.86,1.56-1.29,2.42-1.29
			c0.65,0.22,1.02,1.03,1.13,2.43c0.11,1.4,0.16,2.91,0.16,4.53c0,0.76-0.06,1.51-0.16,2.26c-0.11,0.76-0.27,1.46-0.48,2.1
			c-0.43,1.94-0.97,3.67-1.62,5.17c-0.65,1.51-1.4,2.86-2.26,4.04c-1.29-0.43-2.16-1.56-2.59-3.39c-0.43-1.83-0.65-3.34-0.65-4.53
			C110.81,96.85,111,95.48,111.38,94.02z M104.91,102.99c0.92,3.02,2.77,5.39,5.58,7.11c-1.51,1.4-2.8,2.32-3.88,2.75
			c-1.08,0.43-1.89,0.65-2.42,0.65c-2.16-0.21-3.83-1-5.01-2.34c-1.19-1.35-1.78-3.48-1.78-6.39s0.62-5.6,1.86-8.08
			c1.24-2.48,2.77-4.69,4.61-6.63c-0.11,0.65-0.19,1.32-0.24,2.02c-0.06,0.7-0.08,1.38-0.08,2.02
			C103.54,97.01,103.99,99.98,104.91,102.99z"/>
		<linearGradient id="SVGID_7_" gradientUnits="userSpaceOnUse" x1="33.0441" y1="91.9439" x2="446.5411" y2="91.9439">
			<stop  offset="0" style="stop-color:#E9A700"/>
			<stop  offset="0.09" style="stop-color:#EAA900"/>
			<stop  offset="0.1749" style="stop-color:#EBAE12"/>
			<stop  offset="0.2578" style="stop-color:#EEB62F"/>
			<stop  offset="0.3394" style="stop-color:#F1C24F"/>
			<stop  offset="0.4197" style="stop-color:#F4D174"/>
			<stop  offset="0.4987" style="stop-color:#F8E39E"/>
			<stop  offset="0.5" style="stop-color:#F8E39F"/>
			<stop  offset="0.5727" style="stop-color:#F8DD92"/>
			<stop  offset="0.7056" style="stop-color:#F8CA6F"/>
			<stop  offset="0.8826" style="stop-color:#F6AB34"/>
			<stop  offset="1" style="stop-color:#F39200"/>
		</linearGradient>
		<path style="fill:url(#SVGID_7_);" d="M235.85,19.43c-20.11-1.43-35.19,9.28-36.49,10.46c-2.4,2.2-3.72,3.48-3.96,3.87
			c-0.24,0.39-0.48,0.84-0.72,1.35c-0.36,1.03-0.54,2.26-0.54,3.68c0,1.42,0.39,3.03,1.17,4.84c0.78,1.81,2.25,3.61,4.41,5.42
			c0.24,0,0.81-0.64,1.71-1.94c0.9-1.29,2.43-2.97,4.6-5.03c1.1-1.05,12.61-11.1,26.89-10.95c13.13,0.13,24.11,2.57,31.66,9.89
			c7.78,7.54,5.45,20.89,2.54,27.49c-2.04,4.26-4.57,8-7.57,11.23c-3,3.23-6.25,5.9-9.73,8.03c-3.49,2.13-7.12,3.71-10.9,4.74
			c-3.78,1.03-7.48,1.55-11.08,1.55c-0.84,0-1.62-0.03-2.34-0.1c-0.72-0.06-1.5-0.16-2.34-0.29c2.64-7.1,4.74-12.49,6.31-16.16
			c1.56-3.68,2.7-6.42,3.42-8.23c0.72-1.81,1.17-3,1.35-3.58c0.18-0.58,0.27-1.32,0.27-2.22c0-1.55-0.48-2.87-1.44-3.97
			c-0.96-1.1-2.04-2.03-3.24-2.81c-1.2-0.77-2.34-1.39-3.42-1.84c-1.08-0.45-1.74-0.74-1.98-0.87c0,0.77-0.15,1.74-0.45,2.9
			c-0.3,1.16-0.63,2.32-0.99,3.49l-1.26,4.06c-1.2,2.97-2.67,6.71-4.41,11.23c-1.74,4.52-3.45,9.61-5.14,15.29
			c-3.13-1.16-5.74-2.48-7.84-3.97c-2.1-1.48-3.78-2.84-5.05-4.07c-1.26-1.22-2.22-2.26-2.88-3.1c-0.66-0.84-1.05-1.26-1.17-1.26
			c-0.24,0-0.48,0.07-0.72,0.19c-0.24,0.13-0.36,0.32-0.36,0.58c0,0.26,0.06,0.45,0.18,0.58c0,0.13,0.06,0.19,0.18,0.19
			c0.84,1.68,1.8,3.19,2.88,4.55c1.08,1.36,2.58,2.84,4.51,4.45c1.92,1.62,4.38,3.13,7.39,4.55c0.24,0.13,0.51,0.26,0.81,0.39
			c0.3,0.13,0.63,0.26,0.99,0.39c-0.6,1.94-1.2,4.07-1.8,6.39c-0.6,2.32-1.14,4.55-1.62,6.68c-0.48,2.13-0.87,4.1-1.17,5.9
			c-0.3,1.81-0.45,3.23-0.45,4.26c0,1.81,0.36,3.22,1.08,4.26c0.72,1.03,1.5,1.84,2.34,2.42c0.84,0.58,1.65,1,2.43,1.26
			c0.78,0.26,1.29,0.39,1.53,0.39c0-2.07,0.12-3.87,0.36-5.42c0.24-1.55,0.48-2.9,0.72-4.07c0.36-1.29,0.72-2.45,1.08-3.48
			c0.72-1.81,1.59-4.07,2.61-6.78c1.02-2.71,2.13-5.55,3.33-8.52c3.36,0.65,6.55,0.97,9.55,0.97c4.33,0,8.74-0.74,13.25-2.23
			c4.51-1.48,8.83-3.71,12.97-6.68c4.14-2.97,10.41-7.15,18.55-23.91C283.24,50.7,272.01,22,235.85,19.43z"/>
		<linearGradient id="SVGID_8_" gradientUnits="userSpaceOnUse" x1="33.0441" y1="91.9439" x2="446.5411" y2="91.9439">
			<stop  offset="0" style="stop-color:#E9A700"/>
			<stop  offset="0.09" style="stop-color:#EAA900"/>
			<stop  offset="0.1749" style="stop-color:#EBAE12"/>
			<stop  offset="0.2578" style="stop-color:#EEB62F"/>
			<stop  offset="0.3394" style="stop-color:#F1C24F"/>
			<stop  offset="0.4197" style="stop-color:#F4D174"/>
			<stop  offset="0.4987" style="stop-color:#F8E39E"/>
			<stop  offset="0.5" style="stop-color:#F8E39F"/>
			<stop  offset="0.5727" style="stop-color:#F8DD92"/>
			<stop  offset="0.7056" style="stop-color:#F8CA6F"/>
			<stop  offset="0.8826" style="stop-color:#F6AB34"/>
			<stop  offset="1" style="stop-color:#F39200"/>
		</linearGradient>
		<path style="fill:url(#SVGID_8_);" d="M425.57,100.41c-0.22-0.11-0.43-0.16-0.65-0.16l-0.32,0.16c-2.16,4.96-4.37,8.54-6.63,10.75
			c-2.26,2.21-4.15,3.31-5.66,3.31c-0.86,0-1.43-0.4-1.7-1.21c-0.27-0.81-0.4-1.8-0.4-2.99c0-2.69,0.65-5.55,1.94-8.57
			c1.29-3.02,2.69-5.95,4.2-8.81c1.51-2.85,2.91-5.52,4.2-8c1.29-2.48,1.94-4.53,1.94-6.14c0-0.97-0.38-1.91-1.13-2.83
			c-0.76-0.91-1.59-1.75-2.51-2.51c-0.92-0.75-1.75-1.37-2.51-1.86c-0.75-0.48-1.19-0.73-1.29-0.73c-0.22,0.86-0.54,1.83-0.97,2.91
			c-0.43,1.08-0.92,2.1-1.46,3.07c-0.54,1.19-1.19,2.32-1.94,3.4h-4.53c-0.75,0-1.56-0.03-2.42-0.08c-0.86-0.05-1.64-0.13-2.34-0.24
			c-0.7-0.11-1.29-0.21-1.78-0.32c-0.49-0.11-0.73-0.27-0.73-0.48c0.21-0.21,0.38-0.4,0.48-0.57c0.11-0.16,0.32-0.62,0.65-1.37
			c0-0.11-0.67-0.32-2.02-0.65c-1.35-0.32-2.94-0.7-4.77-1.13c-0.54-0.21-1.03-0.32-1.46-0.32c-0.43,0-0.75,0-0.97,0
			c-0.86,0-1.4,0.3-1.62,0.89c-0.22,0.59-0.32,1.48-0.32,2.67c0,1.19,0.32,2.61,0.97,4.28c0.65,1.67,1.88,3.1,3.72,4.29
			c-0.65,3.13-1.59,6.5-2.83,10.1c-1.23,3.59-3.59,8.6-6.36,11.26c-0.88,0.79-2.01,1.69-3.42,2.73c-1.4,0.97-3.31,2.1-5.74,3.4
			c-2.43,1.29-4.83,1.94-7.2,1.94c-3.13,0-5.63-1.21-7.52-3.64c-1.89-2.43-2.83-5.15-2.83-8.17c0-1.94,0.32-3.88,0.97-5.82
			c0.54,0.54,1.4,1,2.59,1.37c1.18,0.38,2.64,0.57,4.37,0.57c2.48,0,4.85-0.46,7.11-1.37c2.26-0.91,4.23-2.16,5.9-3.72
			c1.67-1.56,2.99-3.37,3.96-5.42c0.97-2.05,1.46-4.2,1.46-6.47c0-2.26-0.95-4.37-2.83-6.31c-1.89-1.94-4.55-2.91-8-2.91
			c-2.8,0-5.5,0.81-8.08,2.42s-4.91,3.77-6.95,6.47c-2.05,2.7-3.67,5.74-4.85,9.14c-1.08,3.08-1.64,6.28-1.74,9.58
			c-0.44-0.08-0.89-0.17-1.33-0.29c-1.19-0.32-2.16-0.75-2.91-1.29c0.32-0.86,0.78-2.07,1.37-3.64c0.59-1.56,1.13-3.29,1.62-5.17
			c0.48-1.88,0.91-3.8,1.29-5.74c0.38-1.94,0.57-3.72,0.57-5.33c0-1.83-0.27-3.31-0.81-4.45c-0.54-1.13-1.56-1.7-3.07-1.7
			c-1.29,0-2.48,0.59-3.56,1.78c-1.08,1.19-2,2.61-2.75,4.28c-0.75,1.67-1.35,3.37-1.78,5.09c-0.43,1.73-0.65,3.07-0.65,4.04
			c0,2.16,0.32,4.12,0.97,5.9s1.56,3.21,2.75,4.29c-0.65,1.19-1.43,2.53-2.34,4.04c-0.92,1.51-1.97,2.91-3.15,4.2
			c-1.19,1.29-2.48,2.4-3.88,3.31c-1.4,0.92-2.91,1.37-4.53,1.37c-1.83,0-3.1-0.59-3.8-1.78c-0.7-1.18-1.05-2.75-1.05-4.69
			c0-2.37,0.35-4.71,1.05-7.03c0.7-2.32,1.56-4.55,2.59-6.71c1.02-2.15,2.13-4.2,3.31-6.14c1.18-1.94,2.26-3.66,3.23-5.17v-0.16
			c-1.29-1.08-2.42-1.88-3.4-2.43c-0.97-0.54-1.97-1.05-2.99-1.54c-1.03-0.48-1.86-0.73-2.51-0.73c-1.83,2.48-3.31,4.85-4.45,7.11
			s-2.18,5.01-3.15,8.25c-0.97,3.23-1.56,6.85-1.78,10.83c-1.83,4.53-3.8,7.71-5.9,9.54c-2.1,1.83-3.91,2.75-5.42,2.75
			c-1.29,0-2.13-0.46-2.51-1.38c-0.38-0.91-0.57-2.07-0.57-3.48c0-2.69,0.65-5.55,1.94-8.57c1.29-3.02,2.69-5.95,4.2-8.81
			c1.51-2.85,2.91-5.52,4.2-8c1.29-2.48,1.94-4.53,1.94-6.14c0-0.86-0.38-1.75-1.13-2.67c-0.76-0.92-1.59-1.75-2.51-2.51
			c-0.92-0.75-1.78-1.38-2.59-1.86c-0.81-0.49-1.27-0.73-1.38-0.73c-0.43,2.16-1.32,4.42-2.67,6.79c-1.35,2.37-2.72,5.01-4.12,7.92
			c-1.4,2.91-2.67,6.14-3.8,9.7c-1.13,3.56-1.7,7.6-1.7,12.13c0,0.26,0.01,0.51,0.02,0.77c-0.06,0.04-0.12,0.08-0.18,0.12
			c-0.75,0.49-1.56,0.92-2.42,1.29c-0.86,0.38-1.78,0.57-2.75,0.57c-0.86,0-1.51-0.11-1.94-0.32c1.72-2.16,3.42-4.98,5.09-8.49
			c1.67-3.5,2.51-7.2,2.51-11.08c0-0.54,0-1.05,0-1.54s-0.06-1-0.16-1.54c0-0.75-0.19-1.72-0.57-2.91c-0.38-1.18-0.92-2.32-1.62-3.4
			c-0.7-1.08-1.64-2.02-2.83-2.83c-1.19-0.81-2.64-1.21-4.37-1.21c-1.73,0-3.13,0.27-4.2,0.81c-1.08,0.54-2.05,1.13-2.91,1.78
			c-0.86-1.4-1.48-2.24-1.86-2.51c-0.38-0.27-0.67-0.4-0.89-0.4c-0.65,0.22-1.83,1-3.56,2.34c-1.73,1.35-3.48,3.21-5.25,5.58
			c-1.78,2.37-3.37,5.2-4.77,8.49c-1.4,3.29-2.1,7.03-2.1,11.24c0,1.62,0.24,3.29,0.73,5.01c0.49,1.73,1.21,3.34,2.18,4.85
			c0.97,1.51,2.24,2.75,3.8,3.72c1.56,0.97,3.48,1.46,5.74,1.46c2.69,0,5.04-0.73,7.03-2.18c1.99-1.46,3.26-2.56,3.8-3.31
			c1.4,0.54,2.75,0.81,4.04,0.81c2.05,0,3.8-0.3,5.25-0.89c1.11-0.45,2.02-0.96,2.76-1.54c0.45,1.65,1.17,3.04,2.17,4.13
			c1.83,2,3.77,2.99,5.82,2.99c1.62,0,3.13-0.38,4.53-1.13c1.4-0.75,2.67-1.72,3.8-2.91c1.13-1.18,2.15-2.42,3.07-3.72
			c0.92-1.29,1.7-2.53,2.34-3.72c0.75,4.31,2.29,7.33,4.61,9.05c2.32,1.73,5.09,2.59,8.33,2.59c2.26,0,4.31-0.59,6.14-1.78
			c1.83-1.19,3.48-2.64,4.93-4.37c1.46-1.72,2.69-3.58,3.72-5.58c1.02-1.99,1.8-3.74,2.34-5.25c1.18,0.54,2.32,0.89,3.4,1.05
			c0.46,0.07,0.89,0.12,1.31,0.15c0.04,1.52,0.27,3.22,0.71,5.1c0.49,2.05,1.32,3.96,2.51,5.74c1.19,1.78,2.75,3.26,4.69,4.45
			c1.94,1.18,4.31,1.78,7.11,1.78c3.77,0,7.09-0.81,9.94-2.42c2.85-1.62,5.2-3.4,7.03-5.34c1.59-1.67,3.04-3.55,4.33-5.64
			c0,0,0.01-0.01,0.01-0.01c0.92-1.43,3.95-6.07,5.03-8.5c1.08-2.43,2.64-5.74,4.69-9.94c0.43,0.11,0.86,0.16,1.29,0.16
			c0.43,0,0.91,0,1.46,0c1.18,0,2.32-0.05,3.4-0.16c1.08-0.11,2.21-0.27,3.39-0.49c-1.19,2.91-2.24,6.04-3.15,9.38
			c-0.92,3.34-1.37,6.58-1.37,9.7c0,3.88,0.89,6.82,2.67,8.81c1.78,2,3.69,2.99,5.74,2.99c2.37,0,4.5-0.91,6.39-2.75
			c1.88-1.83,3.5-3.85,4.85-6.06c1.35-2.21,2.37-4.28,3.07-6.22c0.7-1.94,1.05-3.02,1.05-3.23
			C426.38,100.95,426.11,100.73,425.57,100.41z M363.33,89.41c1.51-1.94,2.99-3.31,4.45-4.12s2.72-1.21,3.8-1.21
			c1.51,0,2.26,0.7,2.26,2.1c0,0.86-0.35,1.92-1.05,3.15c-0.7,1.24-1.62,2.4-2.75,3.48c-1.13,1.08-2.45,2-3.96,2.75
			c-1.51,0.75-3.07,1.13-4.69,1.13c-1.08,0-1.78-0.05-2.1-0.16C360.47,93.94,361.82,91.57,363.33,89.41z M275.05,114.63
			c-1.08,0.43-1.89,0.65-2.42,0.65c-2.16-0.21-3.83-1-5.01-2.34c-1.19-1.35-1.78-3.48-1.78-6.39s0.62-5.6,1.86-8.08
			c1.24-2.48,2.77-4.69,4.61-6.63c-0.11,0.65-0.19,1.32-0.24,2.02c-0.06,0.7-0.08,1.38-0.08,2.02c0,2.91,0.46,5.88,1.37,8.89
			c0.92,3.02,2.77,5.39,5.58,7.11C277.42,113.29,276.13,114.21,275.05,114.63z M286.86,96.53c-0.11,0.76-0.27,1.46-0.48,2.1
			c-0.43,1.94-0.97,3.67-1.62,5.17c-0.65,1.51-1.4,2.86-2.26,4.04c-1.29-0.43-2.16-1.56-2.59-3.39c-0.43-1.83-0.65-3.34-0.65-4.53
			c0-1.29,0.19-2.67,0.57-4.12c0.38-1.46,0.86-2.8,1.46-4.04c0.59-1.24,1.27-2.29,2.02-3.15c0.75-0.86,1.56-1.29,2.42-1.29
			c0.65,0.22,1.02,1.03,1.13,2.43c0.11,1.4,0.16,2.91,0.16,4.53C287.02,95.02,286.96,95.77,286.86,96.53z M345.54,95.15
			c-0.43,1.24-0.81,2.18-1.13,2.83c-0.11-0.21-0.19-0.35-0.24-0.4c-0.06-0.05-0.14-0.19-0.24-0.4c-0.86-1.62-1.29-3.5-1.29-5.66
			c0-0.65,0.11-1.59,0.32-2.83c0.21-1.24,0.54-2.43,0.97-3.56c0.43-1.13,0.91-2.13,1.46-2.99c0.54-0.86,1.13-1.29,1.78-1.29
			c0.86,0,1.29,0.81,1.29,2.42c0,0.97-0.16,2.16-0.49,3.56c-0.32,1.4-0.7,2.83-1.13,4.28C346.41,92.57,345.97,93.91,345.54,95.15z"
			/>
	</g>
</g>
<linearGradient id="SVGID_9_" gradientUnits="userSpaceOnUse" x1="102.8131" y1="143.6001" x2="445.702" y2="143.6001">
	<stop  offset="0" style="stop-color:#F3944C"/>
	<stop  offset="0.5" style="stop-color:#ED6D05"/>
	<stop  offset="1" style="stop-color:#D25917"/>
</linearGradient>
<path style="fill:url(#SVGID_9_);fill-opacity:0.26;" d="M444.64,121.3c0,0,8.72,20.87-23.77,32.04
	c-30.64,10.53-80.45,20.58-207.86,3c-79.71-12.96-110.19-26.58-110.19-26.58s41.29,9.45,72.21,15.16
	c30.91,5.71,135.14,23.73,196.53,7.69S444.64,121.3,444.64,121.3z"/>
</svg>
